<svg xmlns="http://www.w3.org/2000/svg" viewBox="0 0 144.55 39.51"><defs><style>.cls-1,.cls-2{fill:#fff;}.cls-2{fill-rule:evenodd;}</style></defs><title>nic</title><g id="Layer_2" data-name="Layer 2"><g id="Layer_1-2" data-name="Layer 1"><rect class="cls-1" y="38.41" width="13.01" height="0.9"/><polygon class="cls-2" points="0 36.92 0 35.52 12.91 35.52 12.96 36.92 0 36.92"/><polygon class="cls-2" points="0 34.02 0 32.09 12.82 32.09 12.86 34.02 0 34.02"/><polygon class="cls-2" points="0 30.58 0 27.79 12.69 27.79 12.75 30.58 0 30.58"/><polygon class="cls-2" points="0 26.33 0 22.02 37.22 22.02 37.22 26.33 14.86 26.33 12.31 22.02 12.63 26.33 0 26.33"/><polygon class="cls-2" points="0 20.53 0 15.19 22.07 15.19 25.34 20.53 25.03 15.19 37.22 15.19 37.22 20.53 0 20.53"/><polygon class="cls-2" points="0 13.69 0 3.3 14.93 3.3 21.11 13.69 0 13.69"/><rect class="cls-1" x="25.03" y="3.28" width="12.19" height="10.41"/><polygon class="cls-2" points="37.22 27.79 37.22 30.58 17.71 30.58 15.86 27.79 37.22 27.79"/><polygon class="cls-2" points="37.22 32.09 37.22 34.02 19.95 34.02 18.68 32.09 37.22 32.09"/><polygon class="cls-2" points="37.22 35.52 37.22 36.92 21.86 36.92 20.94 35.52 37.22 35.52"/><polygon class="cls-2" points="37.22 38.41 37.22 39.31 23.44 39.31 22.84 38.41 37.22 38.41"/><rect class="cls-1" x="40.7" y="38.41" width="12.73" height="0.9"/><rect class="cls-1" x="40.7" y="35.52" width="12.73" height="1.4"/><rect class="cls-1" x="40.7" y="32.1" width="12.73" height="1.92"/><rect class="cls-1" x="40.7" y="27.79" width="12.73" height="2.79"/><rect class="cls-1" x="40.7" y="22.02" width="12.73" height="4.31"/><rect class="cls-1" x="40.7" y="15.19" width="12.73" height="5.34"/><rect class="cls-1" x="40.7" y="3.28" width="12.73" height="10.41"/><path class="cls-2" d="M75.33,2.66h6.75v11H57.48A19.65,19.65,0,0,1,75.33,2.66Z"/><path class="cls-2" d="M71.16,15.19a7.1,7.1,0,0,0-2.54,5.34H55.79a18.3,18.3,0,0,1,1.07-5.34Z"/><path class="cls-2" d="M68.73,22a7.24,7.24,0,0,0,2.54,4.31H56.55A17,17,0,0,1,55.83,22Z"/><path class="cls-2" d="M82.08,27.79v2.79H58.45a18.14,18.14,0,0,1-1.39-2.79Z"/><path class="cls-2" d="M82.08,32.09V34H61.16a19.36,19.36,0,0,1-1.68-1.93Z"/><path class="cls-2" d="M82.08,35.52v1.4H64.85a20.54,20.54,0,0,1-2-1.4Z"/><path class="cls-2" d="M82.08,38.41v.77H70.56s-.39.14-2.68-.77Z"/><path class="cls-2" d="M127.44,3.17c0,.13,0,.13-.61.13h-1.54a1.64,1.64,0,0,1-.54-.13,1.07,1.07,0,0,1-.69-1,1,1,0,0,1,.16-.58.9.9,0,0,1,.62-.37l.23,0a2.8,2.8,0,0,1,2.37,2v0Zm.39-1.82a3.62,3.62,0,0,0-2.6-1.3,2.69,2.69,0,0,0-1.7.5,1.69,1.69,0,0,0-.65,1.3,2,2,0,0,0,.26,1.09l.1.15.16.21H120V4.47h1.47V6.05a1.23,1.23,0,0,1,0,.19.29.29,0,0,1-.28.2h0a.54.54,0,0,1-.41-.31,2.33,2.33,0,0,1-.24-.47l-1,.71a24.56,24.56,0,0,0,1.48,2.21c.83,1.19,1.25,1.77,1.41,2l1.12-.84c-.38-.49-.74-.93-1.07-1.29l-.59-.74-.13-.16.2,0a1.42,1.42,0,0,0,.8-.53,1.23,1.23,0,0,0,.27-.77V4.47h1.64V6.35h-1.25l.62,1.1h.63v3.11H126V4.47h1.43v6.08h1.47V3.2A7,7,0,0,0,127.83,1.35Z"/><path class="cls-2" d="M100.69,3.3H88.77V8l2.92,2.41.28.22,0,0a.42.42,0,0,1,.15.19.29.29,0,0,1-.06.28.35.35,0,0,1-.19.12.77.77,0,0,1-.27,0h-.14l.17.24a1,1,0,0,1,.08.11c.13.2.26.39.46.44l.12,0a1.43,1.43,0,0,0,.72-.28,1.23,1.23,0,0,0,.35-.33.88.88,0,0,0,.15-.64,1.1,1.1,0,0,0-.46-.79l-.56-.46L91.07,8.38l-.83-.69V4.47H92V6.66a.25.25,0,0,1-.13.27A2,2,0,0,1,91,7L92.12,8a1.47,1.47,0,0,0,.95-.37.91.91,0,0,0,.35-.75V4.47h5v1.4H95c-.44,0-.63.18-.63.59,0,.08.07.34.72,1.1s.89.85,1,.85h0a.39.39,0,0,0,.38-.25.58.58,0,0,0,.08-.31V7.09h1.79v3.46h1.47V4.47h.84Z"/><path class="cls-2" d="M117.33,4.6V4.47h.76V3.31h-.76V3.22L117.14,3l-.32-.32a1.14,1.14,0,0,1-.15-.19l-.15-.17a.9.9,0,0,1-.22-.71.78.78,0,0,1,.38-.58.84.84,0,0,1,.44-.1,1.63,1.63,0,0,1,.52.09l.26.08,0,0c.08-.71,0-.84-.39-1A1.4,1.4,0,0,0,117,0a2.6,2.6,0,0,0-.7.11,1.55,1.55,0,0,0-1.07,1.37,1.51,1.51,0,0,0,.22.84,9,9,0,0,0,.66.75l.21.23h-9.69V4.47h.85V6.52c0,.22-.67.3-.67.3h0a1.33,1.33,0,0,1-.6-.24,1.62,1.62,0,0,0-.24-.14l-.18-.08.14-.14a1.5,1.5,0,0,0,.38-1.07A1.48,1.48,0,0,0,105.69,4a2.07,2.07,0,0,0-1.39-.47,2.72,2.72,0,0,0-1.68.58.47.47,0,0,0-.13.11c.08.16.23.5.54,1.2a3.6,3.6,0,0,1,.44-.44,1.34,1.34,0,0,1,.79-.3.59.59,0,0,1,.49.22.65.65,0,0,1,.1.38.89.89,0,0,1-.13.47,1,1,0,0,1-.54.39c-.19.07-.49.18-.68.23.1.23.29.63.36.8h.6a1,1,0,0,1,.87.54,1,1,0,0,1-.17,1.08.77.77,0,0,1-.52.18,1.09,1.09,0,0,1-.26,0,2.09,2.09,0,0,1-1.21-1,7.44,7.44,0,0,1-.42-.79c-.06-.14-.13-.28-.2-.42l-1.08.45A5.73,5.73,0,0,0,103,9.4a2.52,2.52,0,0,0,1.68.73,2.3,2.3,0,0,0,1.58-.5A2,2,0,0,0,106.73,8V7.81l.16,0,.18,0a.78.78,0,0,0,.22,0l.16-.07v2.79h1.48V4.47h1.38v6.08h1.47V4.47H116v.8H113.9a.84.84,0,0,0-.6.23.74.74,0,0,0-.29.59,2.34,2.34,0,0,0,.74,1.44,2.4,2.4,0,0,0,.8.59,1.56,1.56,0,0,0,.59.12,1.11,1.11,0,0,0,.37-.05l.24-.09a2.38,2.38,0,0,1,.32-.12h.1a.25.25,0,0,1,.18.08.37.37,0,0,1,.08.17,1.17,1.17,0,0,1-.22.95,1.22,1.22,0,0,1-.45.33l-.06,0a.56.56,0,0,1-.22.05.14.14,0,0,1-.13-.06,2.14,2.14,0,0,0-.92-.79,1.25,1.25,0,0,0-.42-.08.94.94,0,0,0-.68.24.79.79,0,0,0-.26.59.82.82,0,0,0,.36.72,1.58,1.58,0,0,0,1,.32h.47l0,0a7.29,7.29,0,0,0,.62.56l1.5,1.05.82-.93,0,0c-.1,0-1-.59-1.32-.77l-.21-.13.22-.11a.79.79,0,0,0,.16-.08A2.08,2.08,0,0,0,118,8.21c0-.38,0-.84-.39-1a1.08,1.08,0,0,0-.55-.11,2.71,2.71,0,0,0-.88.15l-.08,0a1.31,1.31,0,0,1-.48.12l-.17,0a1.06,1.06,0,0,1-.49-.39l0-.06c-.07-.09-.26-.42-.28-.46l-.12-.21h2.86Z"/><polygon class="cls-2" points="88.65 13.21 90.35 13.21 93.43 18.57 93.43 13.21 94.95 13.21 94.95 20.91 93.33 20.91 90.16 15.44 90.16 20.91 88.65 20.91 88.65 13.21"/><path class="cls-2" d="M99.43,18.14a1.55,1.55,0,0,1-.29.14,2.1,2.1,0,0,1-.4.1l-.34.07a2.13,2.13,0,0,0-.69.2.68.68,0,0,0-.36.63.63.63,0,0,0,.22.55.79.79,0,0,0,.53.17,1.55,1.55,0,0,0,.9-.28,1.18,1.18,0,0,0,.43-1v-.55Zm-.91-.7a2.38,2.38,0,0,0,.6-.13.45.45,0,0,0,.32-.42.49.49,0,0,0-.25-.48,1.57,1.57,0,0,0-.73-.14,1,1,0,0,0-.76.26,1,1,0,0,0-.21.53H96a2.16,2.16,0,0,1,.43-1.23,2.48,2.48,0,0,1,2.05-.75,3.61,3.61,0,0,1,1.68.37,1.41,1.41,0,0,1,.74,1.4v2.61c0,.18,0,.4,0,.66a.79.79,0,0,0,.09.39.58.58,0,0,0,.22.18v.22H99.62a1.73,1.73,0,0,1-.1-.33,2.9,2.9,0,0,1,0-.34,3.35,3.35,0,0,1-.72.57,2.21,2.21,0,0,1-1.1.27,1.88,1.88,0,0,1-1.3-.44,1.56,1.56,0,0,1-.51-1.25,1.61,1.61,0,0,1,.82-1.52A3.7,3.7,0,0,1,98,17.51Z"/><path class="cls-2" d="M101.55,16.33V15.27h.8V13.68h1.48v1.59h.94v1.06h-.94v3a.68.68,0,0,0,.09.44,1,1,0,0,0,.55.09h.3V21l-.72,0a1.88,1.88,0,0,1-1.45-.36,1.07,1.07,0,0,1-.25-.79v-3.5Z"/><path class="cls-2" d="M105.83,15.21h1.52v5.7h-1.52v-5.7Zm1.52-.68h-1.52V13.16h1.52Z"/><path class="cls-2" d="M112.1,19.39a2.12,2.12,0,0,0,.35-1.32,2.12,2.12,0,0,0-.35-1.32,1.34,1.34,0,0,0-2,0,2.12,2.12,0,0,0-.36,1.32,2.12,2.12,0,0,0,.36,1.32,1.34,1.34,0,0,0,2,0Zm1.21.82a3.19,3.19,0,0,1-4.42,0,3.25,3.25,0,0,1-.73-2.14,3.29,3.29,0,0,1,.73-2.14,3.16,3.16,0,0,1,4.42,0,3.33,3.33,0,0,1,.72,2.14A3.3,3.3,0,0,1,113.31,20.21Z"/><path class="cls-2" d="M119.63,15.54a1.87,1.87,0,0,1,.57,1.53v3.84h-1.54V17.44a1.58,1.58,0,0,0-.12-.69.85.85,0,0,0-.84-.43,1,1,0,0,0-1,.64,2.11,2.11,0,0,0-.15.86v3.09H115V15.22h1.46v.83a2.56,2.56,0,0,1,.54-.63,1.91,1.91,0,0,1,1.17-.34A2.19,2.19,0,0,1,119.63,15.54Z"/><path class="cls-2" d="M124.68,18.14a1.92,1.92,0,0,1-.29.14,2.1,2.1,0,0,1-.4.1l-.35.07a2.31,2.31,0,0,0-.69.2.69.69,0,0,0-.35.63.65.65,0,0,0,.21.55.82.82,0,0,0,.53.17,1.58,1.58,0,0,0,.91-.28,1.18,1.18,0,0,0,.43-1v-.55Zm-.92-.7a2.28,2.28,0,0,0,.6-.13.45.45,0,0,0,.33-.42.51.51,0,0,0-.25-.48,1.57,1.57,0,0,0-.73-.14,1,1,0,0,0-.77.26,1.23,1.23,0,0,0-.21.53h-1.45a2.16,2.16,0,0,1,.42-1.23,2.5,2.5,0,0,1,2.06-.75,3.64,3.64,0,0,1,1.68.37,1.42,1.42,0,0,1,.74,1.4v2.61c0,.18,0,.4,0,.66a.79.79,0,0,0,.09.39.58.58,0,0,0,.22.18v.22h-1.63a1.73,1.73,0,0,1-.1-.33,2.9,2.9,0,0,1,0-.34,3.35,3.35,0,0,1-.72.57,2.28,2.28,0,0,1-1.11.27,1.87,1.87,0,0,1-1.29-.44,1.56,1.56,0,0,1-.51-1.25,1.61,1.61,0,0,1,.82-1.52,3.64,3.64,0,0,1,1.33-.36Z"/><rect class="cls-1" x="127.41" y="13.21" width="1.5" height="7.7"/><rect class="cls-1" x="88.54" y="22.24" width="1.61" height="7.7"/><path class="cls-2" d="M96.08,24.57a1.89,1.89,0,0,1,.56,1.53v3.84H95.1V26.47a1.58,1.58,0,0,0-.12-.69.85.85,0,0,0-.83-.43A1,1,0,0,0,93.1,26a2.14,2.14,0,0,0-.14.87v3.08H91.45V24.25h1.46v.84a2.29,2.29,0,0,1,.55-.64,1.86,1.86,0,0,1,1.16-.34A2.22,2.22,0,0,1,96.08,24.57Z"/><path class="cls-2" d="M100.31,22.17l.31,0V23.4l-.42,0a.47.47,0,0,0-.41.13.44.44,0,0,0-.11.31v.47h1v1.05h-1v4.59h-1.5V25.34h-.84V24.29h.82v-.36a2,2,0,0,1,.31-1.26c.22-.34.75-.51,1.58-.51Z"/><path class="cls-2" d="M105,28.42a2.66,2.66,0,0,0,0-2.64,1.35,1.35,0,0,0-2,0,2.12,2.12,0,0,0-.35,1.32,2.12,2.12,0,0,0,.35,1.32,1.35,1.35,0,0,0,2,0Zm1.2.82a3.19,3.19,0,0,1-4.42,0,3.5,3.5,0,0,1,0-4.28,3.16,3.16,0,0,1,4.42,0,3.54,3.54,0,0,1,0,4.28Z"/><path class="cls-2" d="M111.09,24.11h.13v1.52l-.25,0h-.18a1.26,1.26,0,0,0-1.22.58,2.36,2.36,0,0,0-.17,1v2.72h-1.51V24.24h1.43v1a3.28,3.28,0,0,1,.61-.77,1.61,1.61,0,0,1,1.09-.35Z"/><path class="cls-2" d="M119.17,24.26a1.67,1.67,0,0,1,.66.52,1.69,1.69,0,0,1,.33.73,4.56,4.56,0,0,1,0,.84v3.59h-1.54V26.31a1.19,1.19,0,0,0-.1-.53.75.75,0,0,0-.74-.4.87.87,0,0,0-.86.51,1.62,1.62,0,0,0-.12.66v3.39h-1.51V26.55a1.88,1.88,0,0,0-.11-.74.73.73,0,0,0-.74-.41.89.89,0,0,0-.87.41,1.6,1.6,0,0,0-.12.7v3.43H112V24.25h1.46v.83a2.55,2.55,0,0,1,.53-.63,2.14,2.14,0,0,1,2.2-.05,1.74,1.74,0,0,1,.49.69,1.92,1.92,0,0,1,.73-.74,2.36,2.36,0,0,1,1-.23A2.22,2.22,0,0,1,119.17,24.26Z"/><path class="cls-2" d="M124.68,27.17a1.92,1.92,0,0,1-.29.14,2.1,2.1,0,0,1-.4.1l-.35.07a2.31,2.31,0,0,0-.69.2.68.68,0,0,0-.35.63.65.65,0,0,0,.21.55.82.82,0,0,0,.53.17,1.58,1.58,0,0,0,.91-.28,1.18,1.18,0,0,0,.43-1v-.55Zm-.92-.7a1.93,1.93,0,0,0,.6-.13.45.45,0,0,0,.33-.42.5.5,0,0,0-.25-.48,1.57,1.57,0,0,0-.73-.14,1,1,0,0,0-.77.26,1.23,1.23,0,0,0-.21.53h-1.45a2.16,2.16,0,0,1,.42-1.23,2.5,2.5,0,0,1,2.06-.75,3.64,3.64,0,0,1,1.68.37,1.42,1.42,0,0,1,.74,1.4v2.61c0,.18,0,.4,0,.66a.87.87,0,0,0,.09.4.67.67,0,0,0,.22.17v.22h-1.63a1.73,1.73,0,0,1-.1-.33,3.18,3.18,0,0,1,0-.34,3.35,3.35,0,0,1-.72.57,2.28,2.28,0,0,1-1.11.27,1.87,1.87,0,0,1-1.29-.44,1.56,1.56,0,0,1-.51-1.25,1.62,1.62,0,0,1,.82-1.52,3.64,3.64,0,0,1,1.33-.36Z"/><path class="cls-2" d="M126.79,25.36V24.29h.8V22.71h1.49v1.58H130v1.07h-.93v3a.68.68,0,0,0,.09.44c.06.06.24.08.55.08H130V30l-.71,0a1.88,1.88,0,0,1-1.45-.36,1.09,1.09,0,0,1-.26-.79v-3.5Z"/><path class="cls-2" d="M131.08,24.24h1.52v5.7h-1.52v-5.7Zm1.52-.68h-1.53V22.19h1.53Z"/><path class="cls-2" d="M137.2,26.28a1.28,1.28,0,0,0-.22-.57.92.92,0,0,0-.79-.35,1,1,0,0,0-1,.75,3.07,3.07,0,0,0-.15,1.05,2.79,2.79,0,0,0,.15,1,1,1,0,0,0,1,.71.93.93,0,0,0,.75-.28,1.45,1.45,0,0,0,.27-.73h1.53a2.38,2.38,0,0,1-.5,1.28,2.82,2.82,0,0,1-4.13.16,3.23,3.23,0,0,1-.66-2.11,3.31,3.31,0,0,1,.73-2.28,2.52,2.52,0,0,1,2-.81,3,3,0,0,1,1.77.48,2.19,2.19,0,0,1,.81,1.69Z"/><path class="cls-2" d="M140.82,28.12a.94.94,0,0,0,.21.56,1.4,1.4,0,0,0,1,.3,1.53,1.53,0,0,0,.7-.13.43.43,0,0,0,0-.77,8.05,8.05,0,0,0-1.57-.45,3.32,3.32,0,0,1-1.38-.6,1.33,1.33,0,0,1-.4-1,1.75,1.75,0,0,1,.63-1.35,2.5,2.5,0,0,1,1.76-.57,3.23,3.23,0,0,1,1.76.43,1.79,1.79,0,0,1,.77,1.47h-1.5a.84.84,0,0,0-.16-.46,1,1,0,0,0-.85-.3,1.25,1.25,0,0,0-.7.15.44.44,0,0,0-.21.36.4.4,0,0,0,.22.37,10.83,10.83,0,0,0,1.58.41,2.94,2.94,0,0,1,1.34.63,1.41,1.41,0,0,1,.44,1.07,1.71,1.71,0,0,1-.63,1.38,3,3,0,0,1-2,.54,3,3,0,0,1-2-.57,1.84,1.84,0,0,1-.65-1.44Z"/><path class="cls-2" d="M89.42,32.4a3.63,3.63,0,0,1,5.22.33,2.68,2.68,0,0,1,.53,1.43H93.55a2.35,2.35,0,0,0-.4-.84,1.62,1.62,0,0,0-1.28-.5,1.59,1.59,0,0,0-1.37.71,3.46,3.46,0,0,0-.5,2,3,3,0,0,0,.53,1.94,1.66,1.66,0,0,0,1.34.65,1.55,1.55,0,0,0,1.27-.55,2.37,2.37,0,0,0,.4-.9h1.62a3.46,3.46,0,0,1-1.07,2,3.09,3.09,0,0,1-2.2.79,3.34,3.34,0,0,1-2.61-1.07,4.26,4.26,0,0,1-.94-2.93A4.19,4.19,0,0,1,89.42,32.4Z"/><path class="cls-2" d="M97.74,35a1.47,1.47,0,0,0-.4.88h2.59a1.23,1.23,0,0,0-.41-.89,1.28,1.28,0,0,0-.89-.32,1.18,1.18,0,0,0-.89.33ZM100,33.72a2.37,2.37,0,0,1,1,.84,2.85,2.85,0,0,1,.45,1.18,5.91,5.91,0,0,1,0,1.13H97.3a1.35,1.35,0,0,0,.6,1.2,1.55,1.55,0,0,0,.83.21,1.29,1.29,0,0,0,.83-.26,1.24,1.24,0,0,0,.31-.39h1.54a1.86,1.86,0,0,1-.56,1,2.83,2.83,0,0,1-2.16.83,3.21,3.21,0,0,1-2-.7,2.77,2.77,0,0,1-.87-2.28,3.06,3.06,0,0,1,.79-2.27,2.75,2.75,0,0,1,2-.79A3.25,3.25,0,0,1,100,33.72Z"/><path class="cls-2" d="M106.77,33.93a1.86,1.86,0,0,1,.56,1.53V39.3h-1.54V35.83a1.58,1.58,0,0,0-.12-.69.84.84,0,0,0-.83-.44,1.05,1.05,0,0,0-1,.65,2.31,2.31,0,0,0-.14.86V39.3h-1.5V33.61h1.45v.83a2.57,2.57,0,0,1,.55-.63,1.91,1.91,0,0,1,1.17-.34A2.21,2.21,0,0,1,106.77,33.93Z"/><path class="cls-2" d="M108,34.71V33.65h.8V32.07h1.49v1.58h.93v1.06h-.93v3a.7.7,0,0,0,.09.44,1.06,1.06,0,0,0,.55.09h.29v1.12l-.71,0a1.92,1.92,0,0,1-1.45-.36,1.09,1.09,0,0,1-.26-.79V34.71Z"/><path class="cls-2" d="M115.3,33.47h.13V35l-.25,0H115a1.25,1.25,0,0,0-1.22.59,2.3,2.3,0,0,0-.18,1v2.72h-1.51V33.6h1.44v1a3.19,3.19,0,0,1,.6-.78,1.7,1.7,0,0,1,1.1-.34Z"/><path class="cls-2" d="M117.7,35a1.53,1.53,0,0,0-.4.88h2.59a1.26,1.26,0,0,0-.4-.89,1.31,1.31,0,0,0-.89-.32,1.19,1.19,0,0,0-.9.33ZM120,33.72a2.29,2.29,0,0,1,1,.84,2.86,2.86,0,0,1,.46,1.18,8.23,8.23,0,0,1,0,1.13h-4.19a1.39,1.39,0,0,0,.6,1.2,1.57,1.57,0,0,0,.83.21,1.29,1.29,0,0,0,.83-.26,1.24,1.24,0,0,0,.31-.39h1.54a1.86,1.86,0,0,1-.56,1,2.8,2.8,0,0,1-2.16.83,3.16,3.16,0,0,1-2-.7,2.74,2.74,0,0,1-.88-2.28,3.06,3.06,0,0,1,.79-2.27,2.77,2.77,0,0,1,2.06-.79A3.25,3.25,0,0,1,120,33.72Z"/></g></g></svg>