<?xml version="1.0" encoding="utf-8"?>
<!-- Generator: Adobe Illustrator 24.0.0, SVG Export Plug-In . SVG Version: 6.00 Build 0)  -->
<svg version="1.1" id="Layer_1" xmlns="http://www.w3.org/2000/svg" xmlns:xlink="http://www.w3.org/1999/xlink" x="0px" y="0px"
	 viewBox="0 0 183 300.1" style="enable-background:new 0 0 183 300.1;" xml:space="preserve">
<style type="text/css">
	.st0{fill-rule:evenodd;clip-rule:evenodd;fill:#FFFFFF;}
</style>
<g id="Layer_x0020_1">
	<path class="st0" d="M176.7,56.7c0.9,1.1,2.3,2.9,1.9,5.4c-0.2,1-1.4,2.4-2.2,3.3c-1.2,1.3-3,2.7-4.5,4c-1.5,1.4-3.3,2.8-4.2,4.2
		c-0.3,0.4-0.4,1.4-0.8,2c-0.7,1-2.3,2.4-3.7,3.7c-1.2,1.1-3.1,3.2-4.2,3.2c-1.8,0-2.7-2.7-3.9-4c-1.1-1.2-2.1-1.8-3.8-1.7
		c-1.1,1.7,0.5,3.2,1.2,4.4c0.7,1.3,1.2,2.8,2.2,3.8c1.3,4.2,3.4,8.5,3.2,13.6c-3.3-0.4-4.1,3.4-6.9,2.4c-0.1-3,3.5-3.6,3.5-6.9
		c-1.2-0.5-2.5,0.6-3.4,1.4c-1.2,1.2-2.1,2.5-2.7,4.3c0.9,1.9,2.2,4.5,4.2,4.6c2.4,0,3-3.8,5.4-3.7c1.6,1-0.1,3.6-0.5,4.8
		c-0.4,1.3-0.6,2.3-1,3.7c-0.4,1.2-0.9,2-1,3.7c-1.2,2.7-2.2,5.4-3.9,7.7c-1.2,1.7-2.2,3.3-3.3,4.9c-1.1,2.7-2.7,5.8-3.7,8.9
		c-0.5,1.6-0.7,2.9-1.2,5c-0.2,0.9-0.7,1.7-0.9,2.5c-0.2,1.3-0.3,2.8-0.5,4.3c-0.2,1.4-0.4,3-0.5,4.4c-0.1,3-0.7,5.9-0.8,8.7
		c-0.1,1.5,0.1,3.2,0.1,4.8c0,1.9-0.6,3.2,0,5c0.1,0.4,0.5,0.9,0.6,1.4c0.5,1.7,0.6,3.7,1,5.4c0.2,0.7,0.6,1.4,0.9,2
		c0.1,0.4,0,0.9,0.1,1.3c0.5,1.2,1.4,2.2,2.2,2.9c2.2,0.1,3.7,0.7,4.8,1.9c0.5,0,0.9,0,1.4,0c4.7,2.4,8.6,5.5,8.6,12.6
		c1.1,0.7,2.4,0.3,3.4,0.6c1.4,0.5,3,3.5,3.5,5.2c0.1,0.6,0.1,1.4,0.3,2.2c0.2,0.6,0.6,1.2,0.7,1.7c0.3,1.8,0,3.3,0.6,4.7
		c0.1,0.1,0.3,0.1,0.4,0.4c0,0.2-0.1,0.5,0,0.6c0.1,0.4,0.6,0.6,0.8,1c0.6,1.1,0.9,2.4,2,3.2c0.1,1.6,0.1,2.7,0,4.3
		c-1,1-1.7,2.3-2.7,3.4c-0.1,1.2-0.5,1.9-1,2.5c-0.2,0.7,0,1.5-0.1,2.2c-0.1,0.5-0.9,0.9-1,1.5c-0.4,1.2-0.2,2-1.2,2.5
		c-0.1,0.7,0.2,0.9,0,1.4c-0.1,0.9-0.8-0.4-1.2,0.1c-0.5,0.9,1.2,1.4,0.1,2.4c-0.6,0.1-0.1-1.2-0.6-1.2c-2.9,2.8-5.5,6-9.6,7.7
		c0.5,1.1,2.7,0.2,3.9,0.3c1.4-1.3,2.6-2.7,4-4c-0.1-0.8,0.6-0.9,0.8-1.5c0.4-0.4,0.1-1.4,1-1.2c0.6,1.3-1.1,1.5-1,2.9
		c-1.7,1.7-3.1,3.5-5,4.8c-3.3,0.4-7.3-1-8.9,1.2c-0.1,0.6,0.2,1.2,0.1,1.8s-0.8,1.1-1,1.7c-0.2,0.7,0,1.6-0.1,2.2
		c-0.5,1.7-2.2,2.4-3,3.4c-12.9,0.4-27.8,0.1-41.5,0.5c-17.9,0.4-37.4-0.1-54.4-0.4c-1.3,0-2.7,0.1-3.9,0c-0.9-0.1-1.9-0.5-3.2-0.1
		c-0.4-0.7-1.3-1-1.7-1.5l-0.7-1.7c-0.2-1.2,0.4-2.7,0-4c-0.3-1.3-1.7-1.9-2.2-2.8c-3.4,0.2-5.9-0.4-8.4-1c-2.7-1.8-4.6-4.4-6.2-7.2
		c0.1-1.3-0.5-1.7-0.9-2.4c0.2-1.8-0.9-3-1.2-4.7c-0.1-1.3,0.2-2.7-0.1-4.1c-0.2-0.6-0.9-1.4-1.2-1.9c-0.4-0.6-1.2-1-1.5-1.5
		c-0.3-0.6-0.7-2.5-0.6-3.4c0.1-0.8,0.6-1.5,0.6-2.4c1.7-1.4,2.5-4.2,2.9-7.2c0.1-0.6-0.1-1.2,0-1.7c0.3-0.9,1.5-1.2,1.4-2.2
		c-0.2-0.6,0.9-0.1,1-0.5c0-0.3,0-0.6,0-1c-0.1-0.8,0.6,0.5,1-0.1c0.5-0.5-0.6-0.4-0.5-1c0.6-0.9,1.5-1.5,2.2-2.4
		c0.9-0.2,0.4,0.8,1,0.9c0.9-0.2,1.4-0.9,2.5-1c0.1-0.9-0.9-0.6-1.2-1.2c-0.1-2.3-0.5-4,0-6c0.4-0.5,0.8-0.9,0.8-1.7
		c1.1-0.9,1.9-2.4,2.7-3.8c0.2-0.5,0.1-1.4,0.8-1.4c1.8,3.1-3,4.5-2.3,7.6c1.2,0.1,2.2-1.1,2.8-2c1.3-1.7,1.9-3.6,1.9-6.6
		c0.9-1,3-0.5,4.3-1c0.7-0.2,0.9-0.6,1.6-0.6c1.7-2,2.5-6.3,3-9.7c0.6-4.5,0.6-11.2,0.2-16c-0.1-1.1-0.6-1.9-0.9-2.9
		c-0.3-1-0.4-2.2-0.6-3.3c-0.3-1.2-0.4-2.3-0.5-3.4c-0.3-2.3-0.7-4.8-0.9-7.1c-0.2-4.4,0.3-9-1.2-12.2c-1.1-0.2-0.4,1.4-1,1.7
		c-3-1.4-4.6-3.9-6.4-6.4c-1.2-0.9-1.7-2.3-2.7-3.7c-0.8-1.2-2-2.3-2.5-3.7c-0.6-1.7-0.5-3.9-2-5.3c-0.9-3.4-0.9-8.5-0.4-12.7
		c0.3-2.2,0.6-4.1,1.4-5.7c0.4-0.9,1.4-1.7,1.7-2.5C29,89,28.5,87.3,29,86c0.5-1.5,2.1-1.9,2.2-3.9c0.1-1.3-0.6-2.7-1.3-2.9
		c-2.2-0.4-2.6,3.9-5.4,3.5c-2.1-0.2-3.7-2.1-5.4-3.7c-1.7-1.7-3-3.2-4.2-4.9c-0.1-1.4-0.6-2.3-1.2-3.2c-0.5-0.2-1.2-0.1-1.7-0.4
		c-1.7-1.2-3.8-3.2-5.3-5.3c-1.1-1.4-2.2-3.1-1.2-5.3c0.3-0.6,1.1-1.3,1.5-2c1.4-1.8,2.8-4,4-6c0-0.6,0.3-1.1,0.5-1.7
		c2-5.3,8.2-6.3,11.6-10.7c1.1-1.4,1.7-3.5,3-4.9c0.3-0.2,1-0.6,1.5-1c1-0.6,1.5-0.8,2.9-1.3c0.7-0.4,1.3-0.6,2.4-1
		c2.4-0.9,6.8-2,9.9-0.7c1.5,0.6,2.4,2.2,4.4,2.7c1.9,0.5,4.9,0.2,6.6,1.3c1.2,0.8,1.6,2.3,2.3,3.9c0.8,0.4,2.2,1.6,3.2,0.6
		c-0.1-1.2-1-1.4-1.4-2.4c0.5-1.1,1.7-1.6,2.4-2.8c0.1-0.4,0.1-0.9,0.3-1.4c0.9-2,2.2-5.6,2.5-8.6c0.3-2.3-0.4-4.8-0.1-7.2
		c0.4-2.7,3.5-2.8,7.1-3c10.1-0.5,18.9,0,29.1,0c5.5,0,11.2-0.1,15.8,0.1c0.4,0.6,1,0.9,1.5,1.4c0.9,3.5,1.1,6.7,2.2,9.9
		c0.1,0.3,0.4,0.4,0.5,0.8c1,3.3,2.7,6.5,3.9,9.6c3.4,3.5,10.8,0.6,13.6-1.5c1.4-1,2.3-2.1,3.8-3c2-1.2,5.3-1.2,7.3,0
		c-0.7,0.8-3,0.4-4.2,0.7c-2.4,0.6-4.2,2-5.5,3.7c0.1,4.2-5.7,2.5-9.2,3.9c-1.3,0.5-2.7,1.6-3.7,2.7c-0.5,0.5-1.2,1.4-1.2,2.4
		c1.4,0.8,3.1-0.6,4.8-1.4c0.7-0.4,1.5-0.6,2.3-1c1.1-0.5,2.4-1.5,4-1.2c1.4,0.2,1.7,1.5,2.5,2.7c0.8,0.5,1.9-0.4,2.4,0.3
		c0,1.3-0.6,2.4-1.2,3.4c-0.6,0.9-1.5,1.8-1.7,2.9c-0.2,1.3,0,3.7,1.4,3.7c1.4,0.1,1.6-2.2,2.2-3.2c0.4-0.5,1.4-1.6,2-2
		c1.1-0.7,2.7-0.9,4.2-2.2c1.3-1,2.4-3,3.3-3.7c0.1,0,1.4-0.6,1.4-0.6c0.7-0.2,1.7,0,2.2-0.1c1-0.4,2.2-1.1,2.4-2.5
		c0.1-1.7-1.2-3.3-1.9-3.7c-0.7,0-1.7,0.1-2.2-0.1c-0.4-0.5-0.2-1.6-0.5-2.2c-0.7-0.7-2.4-1-1.9-2.4c1.5-0.1,3.4,0.8,4.5,1.7
		c1.6,1.2,4.5,4.6,5,6.8c0.2,0.7,0.2,1.6,0.2,2.3c-1,0.8-1.6,0.9-2.5,1.4c-1.9,1-5.3,3.2-5,5.3c0.2,1.9,2.2,1.5,4.7,1.9
		c1.4,0.2,3.5,0.8,3.2,2c-0.4,1.4-5.2,0.1-6.6,0.9c-1.9,1.2-0.9,4.1-1.2,7.6c3.4,0.1,7.6-1.2,11.2-0.4c2.6,2,5.7,4.4,10.4,3.7
		c0.1-1.4-1.9-2.2-3.4-2.2c-0.8-0.1-0.8-1.1-1.4-1.5c-0.8-0.2-1.7-0.4-2.3-0.9c-0.6-0.7-0.6-1.6-1-2.3c-1-1.8-3-2.4-4.2-3.9
		c2.1-0.8,6.7,0.6,6.7-2c-0.9-1-3,0.6-3.9,0.1c-0.1-1.7,2.1-2.7,3.2-3.8c0.5-0.3,1.7,0,2-0.5c0.3-2.2-1.9-2-2.7-3
		c-1.3,0-2.2-0.7-3.2-1c-0.9-0.3-2.1,0.1-2.9-0.7c0.9-1,3.3-0.4,4.5,0s1.5,0.5,2.5,1.1c2.7,1.4,6.3,4.5,3.5,8.2
		C173.1,53,175,54.6,176.7,56.7z M175.8,62.1c1.3-0.7,0.6-2.6,0.5-4c-1.8-1.9-3.5-4-5.7-5.5c-0.5,1.4-2,2.4-1.9,3.8
		c0.2,1.2,2.1,2.3,3.2,3.2C173.4,60.7,174.6,61.8,175.8,62.1z M167.6,68.7c1.5,0.1,1.8-0.9,1.7-2.4c-0.5-0.4-0.9-0.3-1.6-0.1
		C167.4,66.6,167.3,68,167.6,68.7z M167.1,223c0.2-4,0.2-9-0.8-11.7c-0.2,0-0.3-0.2-0.5-0.1c-0.6,0.9-0.9,2.9-1,4.5
		c-0.4,4-0.2,9.4,1,12.1C167.1,227,167,224.7,167.1,223z M164.4,74.2c1.1-0.6,1.2-2.8,0.6-4c-0.6-0.4-1.4-0.6-2.5-0.5
		c-1.4-0.8-4.2-1.6-6-0.9c0,0.8,0.8,1.4,1.4,1.9c0.6,0.4,1.4,0.9,2,1.3C161.2,72.9,162.7,73.9,164.4,74.2z M162.3,224.7
		c0.1-4.3,0.1-9.9-1-12.3c-0.2,0-0.3-0.2-0.5-0.1c-1.8,4.2-1.7,13.2,0,17.4C162,228.9,162.1,226.7,162.3,224.7z M162.3,78.5
		c-0.1-2-1-3.2-2.2-4.3s-3-0.9-4.5-1.7c-1.3-0.6-2.7-2.2-2.5-3.3c0.1-1.3,1.9-1.7,2.9-2.5c0.7-0.8,2.5-3.2,0.6-4
		c-1.2,0.7-3.1,0.6-4.3,1.2c-1.4,2.2-1.5,6.4-0.5,9.1c1.1,1.2,2.5,1.2,4,2.4C157.9,77,158.7,80.7,162.3,78.5z M155.9,192.1
		c1-2.3-0.6-3.5-2-4.7c-1-0.9-2-1.9-2.9-2.4c-0.4,0.3-0.3,0.9-1,0.9c-1.6,0-1.7-2.2-3.2-1.9c-0.9,0.2-1,1.6-0.6,2.7
		c0.4,1.3,2.6,3.4,3.3,3.7c1.2-0.3,0.8-2.2,1.7-2.7C153.4,188.5,153,191.9,155.9,192.1z M154.2,225.1c0.4-4.9-4.7-7.1-9.8-5.2
		c-0.3,1.2-0.1,2.8-0.1,4.2c-0.8,0.5-0.5,1.7-0.9,2.7c-0.3,0.9-1.3,1.6-1,2.4c1.8,0.4,3.7-0.3,5-0.9c0.6-1.1,1.4-3.5,2.9-3
		c1.9,0.6-0.5,3.7-0.5,5.4c-1.8,2.6-3.6,5.2-4.7,8.5c0.5,0.7,1.7,0.4,2.5,0c0.3-3,1.4-4.8,2.7-6.8c0.4-0.7,0.9-1.5,1.4-2.2
		s1.3-1.2,1.7-1.9C153.7,227.6,154.1,225.8,154.2,225.1z M153.3,237.7c0.1-1.9-0.1-3.9-0.9-4.3c-0.1,0-0.3,0-0.5,0
		c-0.4,1.2,0.4,2.6,0.4,3.8c-0.1,1-0.9,2,0,2.5C153.5,240.1,153.3,238.8,153.3,237.7z M150.2,117.5c-1.6-3.6,3-4.4,2.3-7.7
		c-0.2,0-0.2-0.2-0.5-0.1c-1.7,2-5,4.7-3.5,8.2c0.6-0.1,0.6,0.3,1.2,0.1C149.7,117.8,149.9,117.6,150.2,117.5z M150.3,87
		c1.7-0.1,1.7-4.9,0.1-5.2C149.2,82.5,149.3,86,150.3,87z M150.5,91c-0.4-1.1-2-1.2-3.2-0.6c-1,0.7-1.2,3.6-3,3.5
		c-0.8-0.1-1.2-0.3-1.4-1.2c-0.2-2.2,5-3.7,2.9-6.8c-0.4-0.1-1-0.3-1.2-0.2c-2.6,1.5-6.2,5.7-3.9,8.9c0.4,0.6,2.4,1.8,3.5,2
		c1.8,0.3,3.2-0.9,4.4-2C149.6,93.5,150.1,92.4,150.5,91z M145.1,53.2c1.2-1.7,5.5-1.9,3.5-4.9c-1.1-0.1-2.3,0.9-3.4,1.7
		c-1,0.7-2.2,1.6-2.9,2.3c-1.3,1.7-1.6,4.5,1.2,4.9C144.8,56,144.1,54.6,145.1,53.2z M148.7,59.4c0.7-1.2,0.7-3.7-0.2-5.2
		c-2.7,0-1.3,4.7-3.8,5.4c-1.7,0.4-3.2-0.4-4.4,0c-1.4,0.5-2.4,2.6-2.4,3.7c0.1,1.8,1.9,3.3,3.5,3.5c0.8-0.6,0-1.4,0-2.4
		c0.7-1.2,1.8-1.9,3.4-2.7C146.1,61.1,148,60.5,148.7,59.4z M149.2,245.1c-0.4-0.7-1.3-0.5-1.7,0c-0.1,0.9,0.3,1.4,0.9,1.5
		C148.7,246.3,149.1,245.9,149.2,245.1z M149.3,64.4c-0.3-0.3-0.5-0.7-1-0.8c-2.2,1.4-4.8,4.7-6.4,7.3c-1.3,2.2-2.2,4.3,0.9,4
		C143.8,70.4,148.6,69.4,149.3,64.4z M146.9,79.6c0.3-1.7,1-3.9,0.9-5.7c-0.2,0-0.2-0.2-0.5-0.1c-1.5,1.7-3.7,6-1.7,8.7
		C147.1,82.3,146.8,80.7,146.9,79.6z M143.6,111.7c3,1.9,5-3,4-5.8c-0.2,0-0.4,0-0.5,0C145.9,107.8,144,108.9,143.6,111.7z
		 M146.9,192.9c0.1-1.3-0.9-2.6-1.7-3.7c-0.7-1-1.7-2.3-2.5-3.2c-1.2-1.2-3-1.6-4.4-2.5c-1.8-1.2-1.9-2.7-2.5-5.2
		c-0.3-1.4-1.1-2.7-1.2-3.7c-0.4-3.7-1.6-9.9-0.1-12.9c-0.5-3,0-6.1,0.1-9.2c0.2-5.3,0-9.3-1.7-12.8c-2.3-4.8-6.8-9.1-10.1-12.2
		c-0.1,0.2-0.3,0.3-0.4,0.5c0.1,10.3-0.1,19.5-0.5,28.1c-0.1,2.5,0,4.5,0.5,6.3c0.6,2.1,1.2,3,2,4.8c0.5,1,1,2.2,1.5,3.2
		c1.1,2.2,2.4,4.3,3,6.6c0.5,1.7,0.8,2.5,1.4,3.8c0.5,1.2,1,2.4,1.5,3.2c0.6,1.2,1.1,2.2,1.7,3.2c1.5,2.6,3.1,5.8,6,6.6
		c1.8-0.9,0.4-4.9,2.2-5.7c2.1,0.5,1,4.1,2.5,5.2C145.3,193,146.4,193.6,146.9,192.9z M145.8,122.4c0.2-1.2,1.7-2.3,0.6-3.7
		c-2.1,0-2.7,2.4-3.3,3.8c-0.5,1.2-1.2,2-0.5,3.5C144.3,125.4,144.5,123.4,145.8,122.4z M145.9,246.7c0.1-0.9-0.1-1.7-1.2-1.5
		c-0.6,0.2-0.7,1.7-0.1,2C145.3,247.3,145.6,246.9,145.9,246.7z M143.8,253.6c1.2,0.5,2.3-0.2,2.2-1.5c-0.8-0.1-0.7,0.7-1.5,0.6
		c-0.5-0.1-0.4-0.9-1-1C143.4,252.5,143.4,253.1,143.8,253.6z M144.1,215.1c-0.1-1.3,0.1-2.9-0.2-3.9c-3.7-1.4-5.5,1.9-8.1,2.9
		c0.3,1.4-0.6,1.6-0.8,2.7c-0.5,2.5,1,7-1.5,6.7c-1.5-0.1-1.9-3.8-1.7-6.2c0.1-1.6,0.8-2.2,1.2-3.4c0.5-0.2,0.8-0.7,1.5-0.8
		c0.3-2,2.3-2.3,3.2-3.7c-0.1-1.4-1.4-1.7-1.2-3.5c-0.6-0.5-1-0.2-1.5-0.8c-0.6-0.6,0-1.3-1-1.4c-0.7-0.1-1.1,1.3-2,1.7
		c-0.9,0.4-1.2-0.1-2.2,0.2c-0.6,1.1-1.4,2-2.5,2c-1.9-0.1-2.4-2.8-2.8-4.8c-0.9-0.4-3.4-1.6-4.2-0.5c1.4,2.7,3.5,4.6,3.9,8.3
		c2.2,0.3,4.8-0.3,5,2.2c0.1,1-0.6,1.7-0.4,3.2c-0.6,0.6-1.5,1.1-1.2,2.7c0.5,0.6,1.5,0.9,1.9,1.8c0.6,1.7-0.9,3.5-0.2,5.4
		c0.2,0.5,0.9,0.9,1.5,1.4c1.4,1.1,2.2,1.9,4,2.3c1,1.4,1.5,5.1,0.9,7.7c-0.2,0.9-1.2,1.7-0.6,2.4c0.6,0.4,1.4,0.1,2-0.1
		c0.1-1.9,0.2-3.9,1-4.9c0.5-0.7,1-1.7,1.2-2.4c0.2-1.4-0.3-2.7,0.1-4c0.1-0.4,0.7-0.6,0.9-1c0.2-0.4,0-1,0.1-1.5
		c0.2-0.5,0.6-1.2,0.9-1.7c0.7-1.7,0.9-2.9,1.4-4.8c-0.2-0.9-0.9-1.6-0.7-2.4C142.2,215.6,143.3,215.8,144.1,215.1z M143.6,104.5
		c0.6-1.3,0.9-3.2,0.3-4.9c-0.2,0-0.4,0-0.6,0c-1.8,1.9-3.2,5-3.2,8.1C141.7,107.9,143,105.5,143.6,104.5z M142.4,247
		c1.1-1.9-1.9-2.6-1.5-0.4c0.4,0.1,0.4,0.6,1.2,0.5C142.1,247,142.2,246.9,142.4,247z M142.2,253.6c0.4-0.6,0.1-1.7,0.1-2.5
		c-1.6-0.9-2.5,1.4-1.7,2.5C141.2,253.8,141.7,253.8,142.2,253.6z M143.1,82.3c-0.9-0.5-1.9-0.6-3-0.4c-1.4,0.3-3.9,2.1-5,0.4
		c0.6-2.4,4.6-2.2,4.3-4.9c-1.3-1.2-4.2,0.6-5.3-0.9c-0.4-0.4-0.2-1.4,0-1.8c2.2-0.7,4.5-2.1,4.2-4.8c-2.6-1-4.3,0.9-5.7,2.5
		c-0.8,0.9-2.2,2.9-2,3.9c0.1,0.7,1.3,1.2,1.8,2c0.6,1,0.5,2.2,0.9,3.5c0.4,1.4,1.3,2.4,1.7,3.4c0.7,1.6,0.6,4,3,4
		c0.5-0.4,0.8-1,0.7-2C139.6,85.1,142.2,84.6,143.1,82.3z M138.2,133.5c1.4,0.1,3.3-1.7,3.2-2.9c-0.1-1.5-3-2.2-3.7-0.3
		C137.3,131.2,137.6,132.5,138.2,133.5z M142.1,115.7c-0.6-1-1.6-0.6-2-0.2c-0.9,0.9-2,3-2.5,4c-0.5,0.9-1.4,2.2-0.9,3.2
		c1.7,0.1,2.7-1.7,3.5-2.9C141.1,118.6,141.7,117.3,142.1,115.7z M139.4,253.6c0.3-0.6,0.3-1.8,0-2.4c-1.6-1.4-1.9,1.4-1.7,2.4
		C138.2,253.8,138.9,253.8,139.4,253.6z M139.2,181c2.7-3.1,0.4-8.2,0.1-12.2c0-0.6,0.2-1.2,0.2-1.9c0-3.1-0.6-6.4-0.4-9.7
		c0.4-6.4,0.8-14.8-0.9-19.3c-0.2,0-0.2-0.2-0.5-0.2c0,0.3-0.3,0.3-0.3,0.5c-1.1,4.8-0.6,11.4-0.9,17c-0.1,2.6-0.6,5.9-1.9,7.1
		c0.7,0.4,0.6,0.8,0.7,1.7c0.4,3.2,0,6.9,0.5,10.2c0.2,1.4,0.9,2.7,0.6,4C137.8,178.8,138.1,180.4,139.2,181z M139.2,247
		c0.3-0.5,0.4-2-0.5-1.9c-0.7,0.1-1,0.7-1,1.5C138.1,247,138.6,247.4,139.2,247z M138.4,101.1c0.5-1.4,1-3.3,0.7-5
		c-0.3,0-0.6,0-0.9,0c-1.4,1-2.8,3.5-3,6c-0.1,0.9-0.3,2.6,1,2.7c0.6-0.3,0.9-1,1.2-1.7C137.7,102.4,138.2,101.6,138.4,101.1z
		 M132.2,60.4c1.4-0.5,5-1.1,4.7-3.2c-0.1-1.3-2-1.6-3.5-1.4c-1.9,0.4-4.8,2.4-5.7,3.5c-0.8,1.2-1.4,3.4,0.1,3.7s1.1-1.1,2.2-1.7
		C130.9,61.3,131.4,60.7,132.2,60.4z M135.2,116.7c1-1.4,2-3,1.5-5c-2.7-0.3-4.7,3.7-3.4,6.3C134.2,118.1,134.7,117.4,135.2,116.7z
		 M136.7,253.2c0-0.6,0.1-1.4-0.1-1.9c-1.4-1.5-2.4,0.7-1.7,2.2C135.5,253.9,136.3,253.6,136.7,253.2z M134.8,247.2
		c1.6,0.4,1.7-1.9,0.5-2C134.5,245.1,134.3,246.7,134.8,247.2z M133.7,67.5c0.5-0.6,1.4-1.9,1.2-2.8c-0.4-1.3-2.2-1.1-3.2-0.4
		c-1.3,1-2.8,3.8-2.2,6C130.9,69.8,132.7,68.7,133.7,67.5z M133.5,52.7c0.3-1,1.7-1.5,1.2-2.9c-1.9-0.4-3.8,0.5-4.9,1
		c-0.3,0.1-0.8,0.2-1,0.4c-0.9,0.6-1.4,1.7-2.3,2s-1.7-0.4-2.7,0c0.5,1.4,1.4,2.5,2.5,2.7c1.2,0.2,1.8-0.5,2.5-0.8
		C130.5,54.3,132.4,53.6,133.5,52.7z M128.1,49c2.4-1.8,6.8-2.4,6.6-6.3c0-0.1-0.2-0.2-0.4-0.3c-0.8,0.6-1.6,1.6-3,2
		c-0.6,0.1-1.3,0-2,0.1c-1.1,0.3-2.1,1.2-3,1.9c-1.2,0.9-3.1,2-2,3.3C126,50.5,126.8,49.1,128.1,49z M132.5,98.9
		c1.5-1,2-4.6,1.5-6.6c-0.2,0-0.4,0-0.5,0C132.5,93.6,130.6,97.3,132.5,98.9z M133.3,130c2,0.5,2.2-4.5,0.2-3.5
		C132.9,127.3,132.6,129.1,133.3,130z M133.5,253.4c0.4-1.2,0-2.4-0.9-2.5C130.7,250.7,130.9,254.9,133.5,253.4z M132.8,247
		c0.3-0.6,0.4-1.9-0.5-1.9c-0.8,0.1-1.1,0.7-1,1.7C131.7,247.2,132.3,247.2,132.8,247z M129.8,90.6c1.4-0.2,3.5-2.1,3-4.2
		C131.2,86.6,128.3,89.1,129.8,90.6z M132,235.1c0.4-1.3,1.9-3.2,0.3-4.2c-0.1,0-0.2,0-0.3,0c-1,2.9-1.8,5.5-3.5,7.6
		c-0.6,0.6-1.7,0.9-1.7,2c1.1-0.1,2.3,0.1,3-0.2C130.7,239,131.4,236.9,132,235.1z M129.6,112.5c3.6-1.1,4.4-7.3,2.2-10.5
		c-1.3,0.1-1.7,1.2-1.7,2.7C133,106.9,128.5,109.9,129.6,112.5z M130.5,192.4c1.7,0.1,1.7-2.2,1.3-3.5
		C130.2,188.9,130.1,191,130.5,192.4z M132.3,120.4c-0.9-1.2-2.4-0.2-2.8,1c-0.3,0.8-0.5,2.5,0.3,2.9
		C130.4,122.7,131.8,122,132.3,120.4z M129.3,128.6c-2.7,1,1.9,3.8,1.5,0.9C130.7,128.6,130.1,128.4,129.3,128.6z M128.3,86.5
		c0.9-1.2,2.4-3.2,1.9-4.7c-1.9-0.4-1.5,2.2-3.4,1.5c-2.6-1.1,2.4-6,2-7.6c-0.3-0.2-1.1-0.3-1.2-0.2c-1.5,1.1-2.6,1.4-3.7,2.7
		c-2,2.2-0.3,3,0.8,5.2c0.9,1.6,0.7,2.9,1.2,4.7C127,88.4,127.8,87.3,128.3,86.5z M130.1,253.6c0.3-0.6,0.3-2.2,0-2.7
		c-1.7-0.2-2.1,1.6-1.5,2.7C129.1,253.6,129.8,253.9,130.1,253.6z M129,97.4c1.2-0.6,1.7-4.2,0-3.9C128,93.7,127.5,97,129,97.4z
		 M128.5,247.2c1.8,0.2,1.5-2,0.5-2C128.2,245.1,127.8,246.3,128.5,247.2z M128.6,115.7c-0.5-0.1-0.2-0.8-0.9-0.7
		c-1.6,0.9-1.7,4-2.3,5.9c-0.1,0.4-0.6,0.6-0.7,0.9c-0.4,1-0.4,1.9,0,2.8c0.4,0.9,1.6,2.4,2.4,2.7
		C127.2,123,127.9,119.3,128.6,115.7z M127.3,253.6c0.4-0.5,0.1-1.6,0.2-2.4c-1.4-1.3-2.4,1-1.7,2.4
		C126,253.8,127.1,253.8,127.3,253.6z M126.3,247c0.4-0.6,0.3-1.9-0.5-1.9c-0.9,0-1.2,1.1-0.8,1.9c0.1,0,0.3,0,0.3,0.1
		C125.8,247.3,125.9,247,126.3,247z M126,69.7c0.1-0.9,0.5-2.1-0.5-2.2c-1.4-0.1-1.8,2.3-3.2,2.7c-1.3-1.7,0.7-3.6,1.4-4.9
		c0.4-1.4,0.4-3.9-1.5-3.7c-0.9,1.2-1.1,2.2-1.4,4.2c-0.4,2.8-0.5,10.7,2,10.4c0.9-0.1,1.7-2.1,2-2.9
		C125.3,72.1,125.8,71.1,126,69.7z M125.5,189.4c0.6-2-1.2-4.2-2.4-5.4c-0.5-0.1-0.6,0.2-1,0.4C122.9,186.3,123.7,188.4,125.5,189.4
		z M122.2,96.9c-0.2,1.3,3.1,3.5,3.2,1C125,96.6,122.6,95,122.2,96.9z M124.5,105c2.6-0.6-0.5-5-2.4-2.4
		C122.4,103.8,123,105.3,124.5,105z M124.5,253.6c0.3-0.4,0.1-1.4,0.1-2c-0.5-0.4-0.7-0.9-1.7-0.7c-0.4,0.7-0.2,1.9-0.2,2.7
		C123.1,253.8,124.2,253.8,124.5,253.6z M124.1,59.1c0.4-1.9-2.6-3-2-0.2C122.5,59.5,123.6,59.9,124.1,59.1z M123.5,112.2
		c1.2-0.6,0.4-2.6-0.5-2.5C121.5,109.7,121.9,112,123.5,112.2z M122.6,118.7c1.4-0.2,1.4-2.3,0.6-3.2
		C121.1,114.4,121.1,118.4,122.6,118.7z M123.1,93c1.9-0.3,0.9-4.5-1.5-4.2C120.1,89.9,121.7,93.2,123.1,93z M121.6,181.1
		c1.7-0.4,1.4-5.8,1-8.2c-0.4-2.2-1.3-6.3-3-6.6c-0.7,0.9-1.2,3.2-1.2,5.5C118.4,175.2,118.6,181.8,121.6,181.1z M122.4,247.2
		c0.8-0.3,0.9-1.9-0.2-2c-0.7,0.1-0.9,0.8-0.8,1.7C121.8,246.9,121.9,247.2,122.4,247.2z M121.7,224.7c0-0.3,0.6-1.1-0.1-1
		C121.7,224,121.4,224.6,121.7,224.7z M121.7,252.3c0.1-0.9-1.1-1.5-1.7-1.3s-1.2,0.8-0.9,1.8C119.6,254.3,121.7,253.9,121.7,252.3z
		 M121.6,190.7c0.9-1.7-1.2-1.8-1.9-2.8c-0.5-0.9-0.4-1.8-0.6-3.2c-0.7-1.2-2.4-2-3-3.3c-0.8-1.7-0.4-4.7-0.5-7.1
		c-0.1-3.2-1-6.2-1.9-8.4c-0.6-1.8-1.2-3.9-1-6.2c0.3-2.8,1.2-6.3,1.7-8.7c0.3-1.4,0.6-2.2,0.8-3c0.2-0.6,0.1-1.3,0.2-1.9
		c0.1-0.4,0.5-0.9,0.6-1.2c0.2-0.4,0.3-1.2,1-1c0.7,2.1-0.4,4.5-0.6,7.1c-0.1,1.2-0.1,2.6-0.4,3.8c-0.4,2.5-1,5,0.4,6.8
		c1.4-1.1,1.4-3,1.8-4.9c0.1-0.5,0.4-0.9,0.5-1.4c0.3-1.2,0.3-2.7,0.5-4.2c0.7-4.6,1.4-10.7,1-16c0-0.6,0.1-1.9-0.8-2.2
		c-1.4,1-0.6,4.2-1.7,5.4c-1-0.7-0.4-2-0.6-3c-0.1-0.9-0.6-1.6-0.9-2.4c-0.4-1.5-0.4-3.2-1.5-4c-1.9,0.1-2.4,0.7-3.7,1.5
		c-1.6,1-4.3,2.7-4.8,3.9c-0.9,1.9-0.1,5.3,0,7.7c0,0.8,0.7,2.4-0.7,2.7c-0.6-1.4-1.6-3.1-2.2-4.8c-0.4-1.2-0.3-3.2-1.5-3.2
		c-1.4,0-1.9,4-2,6.3c-0.2,3.9,0.4,8.1,0.9,10.9c0.1,0.9,1,2.4,1.7,2.7c1.2-0.7,1.6-2.3,2-3.7c0.1-0.4,0.4-0.9,0.5-1.3
		c0.3-1.2-0.1-3.1,1.4-3.4c1.8,10.9-3.8,18.8-2.5,29c1.1-0.5,0.9-3.2,2.2-3c0.6,0.7,0.4,1.7,0.5,2.5c0.4,2.5,1.2,5.3,0.6,8.1
		c-0.4,1.9-2.3,3.4-2,5.4c1.2,0.7,3.7,0.1,5.5,0.4c0.9,0.1,0.9,0.9,1.9,0.8c1.1-0.4,0.9-1.8,1.2-3.3c0.1-1.2,0.9-3-0.5-3.2
		c-1.5-0.2-1.4,2.5-3,2.5c-1.2-1.7-0.7-4.2-0.9-6.7c-0.1-4.2-0.4-8-2.2-10.1c-0.5-2.1-1.6-6.8,0.5-8.1c1.9,1.2,1.1,4.5,1.7,6.9
		c0.2,0.6,0.6,1.1,0.7,1.7s0,1.2,0.1,1.7c0.4,1.6,1.2,3.1,1.7,4.5c0.1,0.5,0.1,1,0.2,1.4s0.5,0.6,0.6,1c0.2,0.5,0.1,1.2,0.4,1.5
		c0.5,1.1,1.7,1.7,2.5,2.9C117.3,186.5,117.7,191.1,121.6,190.7z M121.1,86c0.3-0.2,0.5-0.4,0.6-0.6c-0.4-1.9-2.4-3.8-4.2-3.2
		C118.1,84.1,119.1,85.5,121.1,86z M121.2,50.8c0.1-3-1.4-7.7-1.2-11.7c0.1-0.9,0.3-1.6,0.1-2.4c-0.2-2.3-2.7-4.5-4.7-4.7
		c-0.7-0.1-1.4,0.4-2,0.2c-1.3-0.4-1.8-2.6-3-3.9c-1.9-2.2-6.3-4.3-9.2-5.4c-1.1-0.4-2.2-0.2-3.4-0.6c-0.5-0.2-0.6-0.7-1.3-0.9
		c-1.4,0-2.7,0.1-3.9,0c-0.4,0-0.9-0.4-1.4-0.3c-0.7,0.1-1.4,0.6-2.2,0.6c-1,0-1.9-0.9-3-0.4c-0.8,0.1-0.6-0.8-1.4-0.8
		c-0.8,0.4-0.9,1.3-1.5,2c-1.7,1.9-5,3.3-8.2,3.3c-0.8-0.4-1.2-1.2-2.2-1.5c-0.7,0-1,0.4-1.7,0.4c-0.4-0.6-1.2-0.8-1-1.7
		c0.4-1.9,9.8-1,11.8-2c1.8-0.9,1.5-3.2,0.1-4.4c-0.8-0.1-1.4,0.1-1.9,0.4c-0.6,1,0.4,2.4,0,3.2c-1.7-0.3-2.4-1.5-3.5-2.4
		c-2.4-0.6-9.9-4-10.6-0.3c-0.4,2.4,1.7,2.4,2,4.3c-0.5,0.6-2.1,0.6-2,2.2c0.1,1.2,2.8,1.6,2.9,3.3c0.1,1-1,1.4-1.2,2.4
		c-0.2,1.1,1,2.2-0.5,2.7c-1.4,0.4-1.2-1.2-1.9-1.8c-1.9,0.6-3.5,3-3,5.7c0.1,0.6,0.9,2.7,1.2,3.4c0.9,1.4,2.6,2.5,3.9,1.7
		c-0.1-1.3-0.5-3.7,1.2-3.7c0.9,0,1.2,1.1,1.4,2.3c1.4,2,3.1,3.7,5,5.2c1.7-1.8,3.7-3.4,4.9-5.7c-0.6-0.8-1.8-1.9-3.4-2.5
		c-1.2-0.5-3.2-0.4-3.5-1.5c-0.1-0.6,0.6-2,1-2.5c0.4-0.4,1.2-1,1.9-1.7c1.6-1.4,4.5-3.8,7.8-2.5c2.4,0.9,4.8,2.7,5.5,4.2
		c0.3,0.5,0.7,1.6,0.7,2c-0.1,1.9-2.4,3-1.7,4.9c0.6,1.5,3.8,2,5.8,1.9c1.2-0.1,1.9-0.6,2.5-1.2c1.7-1.7-0.3-3.6-0.9-5
		c-1.4-3.2,2.3-7.1,5-7.7c1.2-0.3,3.2-0.4,4.5,0c0.2,0.1,0.3,0.4,0.6,0.6c0.4,0.2,1,0.2,1.2,0.4c1.2,0.8,2.4,2.5,2.7,3.4
		c0.6,2.2-0.5,3.7-1.4,4.8c-0.5,0.6-1.5,1.5-1.5,2.7c0.1,0.8,0.6,1.2,0.9,1.5c0.7,1,0.4,1.5,1.9,2.2c2.2-1.5,5.5-3.1,4.5-7.1
		c-0.2-1-1.6-2.2-0.1-3c1.2,2.4,2.7,5.1,3,8.1c0.1,0.4,0.1,1,0,1.5c-0.3,1.7-1.9,3-2.4,4.3c-0.9,2.6-0.6,6.7-0.1,9.1
		c0.6,2.9,0.4,5.9-1.7,7.8c-0.6,0-1.2,0-1.9,0c-1.6,2.2-1.2,6.8,0.4,8.7c1.2-0.9,2.4-2.2,3.7-3.7c1.3-1.6,3.2-3.5,3-6.3
		c-0.5-0.9-1.5-1.2-1.9-2.3c0.9-1.3,1.7-2.7,1-4.5c0.2-1.2,2.7-1.1,3.4-2C120.8,53.7,121.2,52,121.2,50.8z M120.6,123
		c-1.7-1.3-2.8,2.1-1.2,2.2C120.4,125.3,120.6,124.3,120.6,123z M119.7,247c1.2-2.4-2.4-2.2-1.3,0
		C118.8,247.2,119.3,247.2,119.7,247z M120.6,101.9c-0.7-1.8-1.7-3.5-4-3.5C115.1,100.9,118.6,103.4,120.6,101.9z M116.7,77.9
		c0,1.6,3.2,1.9,2.5-0.5C118.1,76.2,116.8,76.7,116.7,77.9z M118.7,95.5c1.5-2.2-0.6-5.1-3.3-4.2C115.4,93.8,116.8,94.9,118.7,95.5z
		 M118.7,110.8c2-2.3-2.7-6.8-3.7-4.7C115.2,108.8,116.4,110.4,118.7,110.8z M118.1,253.6c0.3-0.6,0.3-2,0-2.5
		c-1.6-0.9-2.4,1.6-1.5,2.7C117,253.7,117.8,253.9,118.1,253.6z M116.9,216.1c0-0.9,1.2-1.2,1.2-2c-0.3-0.9-1.3-0.6-0.9-1.9
		c-1-0.4-1.6-0.4-1.8-1.2c-0.3-1.1,1.2-1.7,0.5-2.7c-0.9,0-0.9,0.9-2,0.7c-0.2,0.4-0.4,0.8-0.9,1c-0.4-0.1-0.4,0.2-0.8,0.1
		c-0.2,0.6-0.9,0.8-1.6,1c-1.5,1.7-4.1,2.4-5.7,4.2c2.8,0.6,4.7-1.3,7.9-0.8c0.4-0.8,2.3-1.3,3.2-0.5c-0.3,0.7-1.7,0.4-2.7,0.5
		c-0.5,0.1-0.4,0.9-1,0.8c-2.7,0.9-5.3,1.7-7.9,2.5c3.8,0.8,8.7,0.1,12,1c-2.6,0.2-5,0.8-7.3,1c-1.2,0.1-2.7-0.2-3.5,0.7
		c2.7,0.7,4.8,1.9,7.8,2.3c0.5,0.1,0.5,0.9,1,1c0.9,0.1,2.4-0.4,2.5,0.5c-1.1,0.7-2.5,0.1-3.2-0.5c-3.2,0.1-4.9-1.1-7.8-1.2
		c-0.2-0.4-1.6-0.9-1.9-0.1c0.6,0,0.7,0.4,1.4,0.3c1.5,2,4.4,2.6,5.8,4.5c0.3,0,0.6,0,0.9,0c0.3,1.1,2,0.7,2,2
		c-0.9,0.1-1.6-0.1-1.7-0.9c-3.4-0.9-5.7-2.9-8.9-4c0.1,1.2,1.3,1.7,2,2.5s1.3,1.7,2,2.4c1.4,1.7,3.2,3,4,5
		c-2.4-2.2-5.1-4.2-7.3-6.3c-0.9-0.7-1.4-1.8-2.5-2.2c0.6,2.5,2.3,4,2.8,6.6c0.9,0.4,0.8,1.9,1.7,2.5c-0.2,1.2,1.4,1.4,0.6,2.7
		c-0.5-0.2-1-0.4-0.9-1.4c-0.2-0.2-0.7-0.3-0.8-0.6c0-0.4-0.4-0.4-0.2-0.9c-1.5-1.9-3.3-4.5-4.5-6.6c-0.1-0.2-0.1-1.1-0.6-0.6
		c-0.4,2.4,1.2,4.4,1,7.2c0.6,0.6,1,2.8,0.4,3.7c-0.8-0.4-0.7-1.5-0.7-2.5c-0.1-0.6-0.8-0.7-0.8-1.4c-0.5-2.7-1.9-4.5-2.2-7.2
		c-0.8,0.6-0.5,2-0.5,3.2c0,3.2-0.2,6.1-0.1,9.1c0,0.6-0.6,1.7,0.5,1.7c0.6-0.6,0.9-1.4,1.9-1.7c0.9,0.2,1.1,1.2,2.2,1.3
		c0.5-0.3,0.1-1.5,0.5-2c0.5,0.3,0.1,1.4,1,1.4c0.6-0.1,0.4-1.2,0.6-1.7c1.1-0.7,2.2-0.1,3.2,0.1c0.4-0.6,0.9-1.2,1.7-1.4
		c-0.1-1.9,1.4-2.6,3-1.8c0.3-0.8,0.6-1.5,1.3-1.9c0.1-0.6-0.3-1-0.1-1.9c0.1-1.2,2.4-0.3,2.7-1.3c0.5-0.6-1.1-0.6-1-1.4
		c0.8-0.1,1.4,0.4,1.9,0c0.1-1.2-1-0.9-0.6-2.3c0.9-1.1,2.8-1.2,2.5-3.5c-1.7-1.1-0.6-3,0.6-3.7c-0.3-1-0.8-0.9-0.4-2.2
		C117.3,217.4,116.8,217,116.9,216.1z M115.2,114.8c-0.2,1.4,3,3.2,4,1.4C119.2,114.6,115.5,113.1,115.2,114.8z M116.9,88.8
		c2.5-1.6-0.8-6.7-3-4.4C114.5,86.3,114.9,88.3,116.9,88.8z M117,122c0.5-2.3-2.4-3-3.4-1.5C113.8,122.2,115.9,123.5,117,122z
		 M116.5,28.4c0.6-2.5-1.9-5.6-2.2-8.9c-0.1-1.2,0.2-2.2-0.2-3.3c-1.8-0.5-3.7-0.4-5.2,0c-1.9,0.5-3.2,2.4-5.3,2.3
		c-0.9-0.6-0.4-2-0.4-3.2c-2.4-1.2-4.2,1.9-3.5,4.4c1.7,0.6,3.8,0.7,5.5,0c0.9-0.4,2.7-2.7,3.8-0.9c-0.7,1.5-3.6,1.2-3.5,3.2
		c0.1,1.2,2.3,2.1,3.9,2.9c2.4,1.2,4.2,2,4.5,4.7C115.2,30.2,116.3,29.6,116.5,28.4z M116.2,247.2c0.5-0.3,0.5-1.7,0-2
		C114.7,244.9,114.4,247.5,116.2,247.2z M115.2,253.6c0.4-0.6,0.2-1.8,0-2.4c-1.8-1.3-1.9,1.2-1.7,2.4
		C113.8,253.8,114.9,253.8,115.2,253.6z M114,208.2c0.4,0,0.9,0.1,1.2-0.1c0-1.7-2.8-0.6-2.8-2.4c0.2-0.4,0-1.3,0.3-1.7
		c-0.7-0.3-1-1.1-1.7-1.5c-1.7,0.8-3-0.2-2.9-2.2c-0.9-0.1-1.1-0.9-1.9-1c-0.6,0.4-1.7,0.7-2.5,0.4c-0.4-0.4-0.3-1.4-0.7-1.9
		c-0.9-0.1-0.6,0.9-1.3,0.9c-0.1-0.6,0.1-1.4-0.5-1.4c-0.9-0.1-1.1,1.2-2,1.2c-1.2,0-1.1-1.2-2.2-1.7c-0.9,0.8-0.2,1.9-0.1,2.9
		c0.2,3.4-0.1,7.8,0.4,11.1c0.9-0.6,0.4-2.6,1.3-3.2c-0.1-0.6,0.3-0.9,0.2-1.5c0.6-0.7,0.9-1.9,1-3c0.4-0.3,0.6-0.6,0.8-1.2
		c0.1-0.9-0.1-2.2,0.7-2.3c1.2,1.3-0.3,2.6-0.5,3.8c-0.1,0.6,0,1.4,0,2c-0.2,1.7-1.2,3.3-1,5c1.1-0.5,1.7-1.8,2.3-2.8
		c0.7-1.1,1.2-2.3,2.2-3c-0.1-0.5,0.1-0.6,0.1-1c0.8-0.1,0.9-0.9,1-1.5c0.9,0,0.6-1.3,1.3-1.5c0.7,0.7-0.1,1.1-0.4,1.7
		c0,0.2,0,0.4,0,0.6c-0.4,0.4-0.7,0.8-1,1.2c0,0.3,0,0.5,0,0.8c-0.4,0.1-0.4,0.5-0.7,0.5c0.1,0.6-0.3,0.6-0.1,1.2
		c-0.6,0.4-0.9,1.1-1,2c-0.7,0.9-1.7,2.3-1.7,3.3c0.9-0.2,1.4-1.1,2-1.7c2.2-1.9,4.5-3.8,6.3-5.7c0.4-0.4,0.9-0.7,1.4-1
		c0.1,0,0.3,0,0.3,0.1s-0.1,0.2-0.1,0.4c-2.2,2.2-4.2,4.8-6.2,7.1c-0.7,0.8-1.7,1.4-2,2.5c2.5-0.6,4-2.3,6.6-2.9
		C110.9,209.7,112.9,209.3,114,208.2z M111.5,82.4c1.4-0.1,2.1-1,1.9-2.7c-1.4-1.6-3.3,1.1-2.2,2.5
		C111.3,82.3,111.5,82.3,111.5,82.4z M113.2,247c1.2-2.4-2.5-2.2-1.4,0C112.4,247.2,112.6,247.1,113.2,247z M111.1,95.9
		c0.9,0.6,1.9,1.2,3,0.5c-0.4-3-3.5-5.6-5.8-6.4c-0.2,0.2-0.3,0.5-0.5,0.6C107.8,92.9,109.6,94.7,111.1,95.9z M113,111.8
		c1-2-0.9-3.7-1.9-4.9c-1.1-1.4-2.3-3-3.8-3.7c-0.1,0-0.2,0-0.4,0c0,0.2-0.2,0.2-0.1,0.5c0.2,1.5,1.1,2.3,1.3,3.7
		C109.7,109,110.3,111.4,113,111.8z M113,103.7c0.9-1.8-1.1-3.2-2-4.3c-1.2-1.4-2.2-2.9-3.7-3.5c-0.1,0-0.2,0-0.4,0
		c-0.6,0.5-0.2,1.9,0.2,2.7C108,100.4,111.1,103.4,113,103.7z M112.4,89.3c1.2-2.4-1.2-2.7-2.7-3.7c-2.1-1.4-4-4.8-5.5-3.2
		c-0.2,3,2.6,4.5,5.5,5C110,88.6,110.9,89.8,112.4,89.3z M112.4,117.4c0.4-0.9-0.1-1.5-0.5-2c-1.2-1.6-2.7-3.2-4.4-4
		c-0.1,0-0.2,0-0.3,0c-0.6,1.5,0.3,1.8,0.9,2.7C109.3,115.4,110.6,117.3,112.4,117.4z M112,253.7c2-2.4-2.5-4.5-1.7-0.5
		C110.7,253.6,111.1,253.9,112,253.7z M110.1,50.4c0.1-1.3,2.1-1.4,1.9-2.7c-2.6-0.3-3.7,2.4-5.8,3.7c-2.2,1.2-5.5,0.7-7.4,0
		c-0.6-0.1-1.5-0.1-1.7-0.8c1.7-0.9,4.5,0,6.3-0.5c0.2-0.1,1.6-0.8,1.7-0.9c0.3-0.2,1.4-1.4,0.8-1.3c-2.2,0.3-6,1.7-8.6,1.3
		c-0.6-0.1-1.7-0.4-1.8-1.3c1.2-1.2,3.2,1.6,4.5,0c-0.7-0.4-2-0.1-2.7-0.4c-0.1-1.1-1.4-1.2-1.3-2.4c0.1-0.5,0.9-0.2,1.3-0.5
		c0.6-1.4,2.2-1.9,2.7-3.5c-0.2,0-0.4,0-0.5,0c-2.1,2.3-6,3.7-10.4,2.4c-0.3-0.4-1.8-1.3-2-0.1c0.1,0.5,0.9,0.2,1.5,0.3
		c0.3,0.3,0.4,0.8,0.6,1c1.9-0.3,1.9,1.1,3.2,1.4c0,0.5-0.4,0.6-0.9,0.6c0,0.8,1,0.6,1,1.4c-1.2,0.8-3.5,0.3-4.9,0.5
		c0.6,0.9,1.8,0.4,2.7,0.6c1,0.3,2.1,1.3,3.5,0.9c0.9,0.6,2,1.2,2.7,1.7c0.9,0.8,1.7,1.1,2.9,1.5c1.2,0.5,4,1.2,6,0.5
		c1.4-0.5,3.2-4,4.1-1c-0.5,1.3-1.3,2.3-1.9,3.5c-1.3,0.5-2.9,2.6-1.4,3.9c2.1-0.6,3.5-2.4,4.4-4c0.5-0.9,1.2-2,0.6-3.5
		C111.2,51.8,110.1,51.3,110.1,50.4z M110.5,125.6c0.5-1.2-0.1-2.4-0.5-3.2c-0.6-1.2-1.8-3.7-2.7-4.2c-1.5-0.9-3.7-0.9-5.4,0.1
		c0.2,2.4,2.7,1.2,3.7,0.4c1.4,0.5,1.1,2.3,1.6,3.5c0.1,0.3,0.4,0.6,0.6,1C108.5,124.3,109.1,125.5,110.5,125.6z M109,247.2
		c1.2,0.2,1.5-2.1,0.4-2.2c-0.9-0.1-1.1,1.3-0.6,2C108.8,247,109,247,109,247.2z M109,253.6c1.4-4.2-3.6-2.4-1.5,0.1
		C108.1,253.8,108.6,253.7,109,253.6z M107.8,74.5c0.6-1.9,0.5-4.2-0.6-4.5c-3,0.8-5.3,5.3-3.4,8.8c0.9-0.2,2-0.6,2.7-1.4
		c0.2-0.3,0.2-0.8,0.5-1.5C107.2,75.4,107.7,75,107.8,74.5z M105.5,247.2c1.2,0.2,1.7-0.9,1.2-1.9
		C105.5,244.5,104.7,246.4,105.5,247.2z M105.8,253.7c0.5-0.6,0.5-2.4,0-3c-1.9-0.5-1.9,1.6-1.5,2.9
		C104.7,253.7,105.2,253.8,105.8,253.7z M106.3,44.3c-0.4-0.1-0.3-0.5-0.9-0.4c-0.4,0.6-1,1.1-1.7,1.5c-1,0.6-2.4,0.9-3,1.8
		C103.2,47.4,106,46.7,106.3,44.3z M104.3,30.5c0.6,0,1.3,0.4,1.9,0c-0.2-1.7-1.8-1.7-3.1-1.3c-0.1,0-1.2,0.6-1.3,0.6
		c-1.7,1.2-3.5,3.8-3,6c2.5,2.3,8.5,0.8,9.4-2c-1.2-0.6-2.7-1.1-4.2-0.9c-1.4,0.2-2.2,1.7-3.3,1.4C100.1,32,102.7,31.4,104.3,30.5z
		 M104.7,92.9c0.6-0.5,0.2-1.9,0.3-2.9c-0.7-0.9-1.1-2.2-2-3.4c-1.7-2.1-4.8-4.6-7.7-3.2c0.2,1.1,1.2,2.1,1.9,2.9
		c0.7,0.8,1.5,1.5,2.3,2.3C100.9,90.2,102.5,92,104.7,92.9z M104.3,112.3c0.1-1-1.7-2.3-2.7-3.2c-3-2.7-7.7-5.9-9.4-8.2
		c-0.2-0.4-0.1-1.2-0.5-1.4C90.1,99.2,89,100,88,101c-0.9,0.9-1.9,2.4-2.5,3.5s-1.2,2.2-1.4,3.7c-0.1,0.9-0.4,2,0.5,2.5
		c1.9-0.1,1.7-2.5,2.7-3.7c0.7-0.9,1.8-0.8,2-1.9c0.3-0.9,0.3-2.4,1.5-2.5c1.4-0.1,1.8,2.4,2.5,3.4c1.7,2.4,6.6,3.7,8.1,5.3
		C101.4,113.3,104,114,104.3,112.3z M102.3,100.6c0.1-1.2,2.1-1.8,2-3c-0.1-0.8-1.2-1.4-1.9-2.2c-1.2-1.3-1.9-2.3-2.3-3.7
		c-1.8-1-3.1-2.5-5.5-2.8c-1.5,0.5-1.9,2.7-1.4,3.8c0.7,1.9,4.3,2.1,6,3c1.1,0.6,2.1,1.7,2,2.9c-1.2,1.2-2.7-0.4-4.2-0.9
		c-1.2-0.4-2.6-0.5-3.5,0.2c1.2,3.8,6,4,8.1,7.1c0.1,1.2,0.4,2,1.3,2.3c1.6-1.1,1.8-2,1.2-3.7C103.7,102.3,102.2,101.7,102.3,100.6z
		 M104.3,215.9C103.2,215.8,103.9,216.4,104.3,215.9z M102.1,61.8c0.2-2,1.7-2.8,1.4-4.9c-1.2-0.3-2,0.8-2.5,1.4
		c-0.6,0.7-1.2,1.7-1.8,2.4c-0.3,0.2-0.7,0.4-1,0.6c-0.5,0.3-1.4,0.9-2,1c-4,1.1-6.6-0.9-8.6-2.7c-1.4-1.2-3-3.7-4.4-2.5
		c-0.6,1.8-1.1,4.1-0.1,6.3c0.4,1.2,1.9,3.5,3.3,3.4c0.8-0.1,1.6-1.5,2.4-1.7c0.6-0.2,2.4-0.1,3.2,0c2.1,0.1,8.9,1.9,10.2,0.1
		C102.6,64.6,102.1,62.4,102.1,61.8z M102.4,128.3c1.2-0.2,2.1-2.5,0.9-3.5C99.9,123.4,99.8,128.6,102.4,128.3z M103.3,224.7
		c0-0.4-0.1-0.6-0.5-0.5C102.7,224.6,102.9,224.7,103.3,224.7z M102.1,44.3c0.4,0.3,1.3,0.2,1-0.6C102.5,43.7,102.3,44,102.1,44.3z
		 M102.9,247.2c0.5-0.4,0.6-2-0.3-2s-1.2,1.1-0.9,1.9C102.1,247,102.4,247.2,102.9,247.2z M102.8,253.7c1.1-1,0.3-3-0.9-2.9
		c-1,0.2-1.1,1.8-0.5,2.9C101.9,253.7,102.4,253.7,102.8,253.7z M100.6,178.6c0.3-2.9,0.9-5.8,0.6-8.7c-0.4-3.9-2.2-7.3-2.7-10.7
		c-0.2-1.1-0.1-2.3-0.4-3.5c-0.2-1.2-0.4-2.2-0.5-3.4c-0.1-2.4,0.2-5.3-0.4-7.6c-0.3-1.2-1.7-3-2.5-3.3c-1.2-0.4-5.1-0.5-5.7-0.2
		c-0.9,0.4-0.5,2.4-0.5,4.8c0,6,0.1,11.1-0.4,16.8c-0.2,2.8-1.1,6-1.2,9.7c-0.1,3.6,0.3,7.4,0.9,10.7c0.6,3.5,0.9,6.9,2.5,9.1
		c2.4,1.2,7.4,1.2,9.7-0.1C100.5,187.7,100.1,183.3,100.6,178.6z M101.3,76.9c0-0.6,0-1.2,0-1.9c-0.4-0.6-1-0.9-1.4-1.5
		c-1.4,0.1-2.2-1-3.7-0.5c-0.9,1.1-1.7,3.5-0.9,5.3C97.3,79.6,100.3,78.5,101.3,76.9z M101.8,45c-0.3-0.2-1.4-0.4-1.4,0.1
		C100.8,45.4,101.6,45.4,101.8,45z M99.1,123.4c0.9-0.1,1.3-1.4,1.2-2.4c-0.3-1.2-2.4-2.7-4-2c-0.1,0.1,0,0.4-0.1,0.4
		C96.9,120.7,97.1,123.6,99.1,123.4z M99.8,220.7c0.2-2.4-0.4-4.2-1.9-5c-2.4-1.4-5.3,0.4-5.8,2.2c-0.8,2.2,0.9,4.2,2.7,5.2
		C97,223.5,98.7,222,99.8,220.7z M99.8,253.4c0-0.9,0.1-2-0.4-2.5c-1.6-0.1-1.8,1-1.7,2.5C98.3,253.9,99.3,254,99.8,253.4z
		 M98.3,115.7c0.7,0.1,1.6,0.6,2-0.2c-1.1-2.2-3-3.6-5.7-4.2c-0.1,0.4-0.6,0.4-0.5,0.9C94.7,114,96.2,115.2,98.3,115.7z M99.4,247.2
		c0.4-0.4,0.6-2-0.3-2C97.8,245.2,97.7,247.5,99.4,247.2z M98.3,45.5c-0.1,0.9,1.4,1.2,1.5,0.3C99.4,45.6,98.6,45.7,98.3,45.5z
		 M98.4,130.8c0.7-2.9-0.6-5-3-5.3c-0.1,0.3-0.3,0.5-0.5,0.7c0,1.7,0.8,3.1,0.4,4.7c-0.8,0.6-1.9,0.9-2.9,1.4c-0.1,0.9-1.2,2-0.3,3
		c1.7-0.1,2.1-1.8,3-2.7C96,131.7,97.1,131.4,98.4,130.8z M97.4,20.4c0.1-1.1,1.1-1.7,0.7-2.8c-0.5-1.4-1.7-0.9-1.9,0.3
		C96.1,18.9,96.6,20,97.4,20.4z M97.6,59.2c0.3-1.7-1.1-3.8-2.4-4.4c-2.2-0.9-6.8,0.2-7.1,1.9c-0.1,1.2,1.9,3,3,3.4
		C93.5,61,96,59.9,97.6,59.2z M96.4,253.7c0.4-0.4,0.4-1.7,0.2-2.4c-1.4-1.7-2.6,1.2-1.5,2.4C95.6,254,95.8,253.8,96.4,253.7z
		 M95.6,247.2c0.6,0,1.1-0.4,1-1.5C94.9,244.3,94,247.1,95.6,247.2z M95.9,199c0.1-0.9,0.6-1.6-0.1-2.2c-1.4,0.2-1.5,1.7-2.9,1.5
		c-0.8-0.1-0.6-0.9-1.5-1.2c-0.4,0.3-0.8,0.6-1.7,0.5c-0.8,0.5-0.7,1.9-1.7,2.2c-1,0.3-1.2-0.6-2.4-0.6c-0.4,0.2,0.1,1.3-0.5,1.4
		c-0.4-0.1-0.4-0.7-1.2-0.5c-0.4,0.9,0.2,2.4-1,2.7c-1.3,0-1.7-0.5-2.4,0.4c2.7,3,6.2,5.3,8.9,8.4c0.4,0,0.5,0.3,0.8,0.4
		c0.1,0.4,0.1,0.8,0.7,0.6c-1.2-2.3-2.2-4.8-3.5-6.8c0.1-1.4-1.2-1.4-1-2.9c-0.6-0.1-1.4-1.3-0.5-1.7c0.6,0.6,0.7,1.6,1.5,2
		c-0.1,0.4,0,0.6,0.1,0.8c1.9,2.2,3.5,4.9,5,7.4c0.1-3.2-1.9-6.6-1.4-10.2c1,0.1,0.8,1.4,0.9,2.5c0.3,0.4,0.6,0.6,0.9,1.2
		c-0.1,0.9,0.6,1.7,0.8,2.5c0.2,0.7,0,1.9,0.9,2.2C95.6,206.6,95.7,202.2,95.9,199z M95.7,241.6c0.5-1.1,0.1-2.4,0-3.9
		c-0.1-2.2-0.4-3.7-0.5-5.5c-0.1-1.2,0.1-2.4-0.6-3.2c-1.1,1.7-1.2,4.5-2.4,6c-0.1,1.1,0.1,2.4-1,2.4c-0.2-4,1.4-7,1.5-10.1
		c-0.5,0-0.5,0.5-0.5,1c-1.8,1.8-2.9,4.4-4.5,6.3c-0.3,0.2-0.2,0.7-0.4,1c-1.1,0-0.4,1.6-1.5,1.5c-0.6-0.6,0.1-1.5,0.7-1.7
		c0-0.3,0-0.6,0-1c0.3-0.3,0.6-0.5,0.8-0.9c0.9-2.9,2.4-5.1,3.7-7.7c-0.2,0-0.4,0-0.5,0c-0.1,0.1-0.1,0.4-0.2,0.5
		c-0.6,0.8-1.7,1.5-2.5,2.2c-1.7,1.6-3.4,3-5,4.4c-0.7,0.7-1.9,1.4-2.2,2.5c0.9,0.8,2.2-0.5,3,0.7c0.4,0.4-0.1,1.7,0.4,2.2
		c1,0.4,0.8-1.2,1.5-0.7c-0.1,0.7-0.1,1.3,0.3,1.5c1.1-0.2,1-0.9,2-0.6c1.2,0.3,0.9,2.4,2.5,2.2c0.4-0.8-0.5-2.8,0.7-3.2
		c0.6,1.2-0.5,2.5,0,3.5c1.4-0.1,1.1-1.2,2.3-1C94.4,240.3,94.4,241.8,95.7,241.6z M94.2,19.1c0.7-0.6,1-2.8-0.1-3
		C93,16.5,93.3,18.8,94.2,19.1z M90.2,122c1.2-1.6,4.6-2.4,3.5-5.2c-0.2,0-0.4,0-0.6,0c-2.6,1.9-5,3.8-6.3,7.1
		c0.5,0.6,0.8,1.4,1.9,1.4C89.5,124.6,89.7,123.2,90.2,122z M92.9,247c0.5-0.7,0.5-2.2-0.8-2c-0.6,0.2-0.7,1.6-0.2,2
		C92.2,247,92.6,247,92.9,247z M91.8,253.7c2.6,0.7,2.1-3.4,0.4-2.7C91.1,251.5,91,253,91.8,253.7z M91.8,126.6
		c-3-0.1-6.8,2.1-6.2,5.9c0.5,0.5,0.9,1.2,1.9,1.2c0.6-0.4,0.9-1.1,0.8-2.2c0.6-0.4,0.5-1,0.9-1.5C90,128.8,91.6,128.2,91.8,126.6z
		 M90.7,19.9c1.5-0.1,1.6-2.5,1-3.7C89.5,15,90.2,18.6,90.7,19.9z M91.3,46.9c0-0.4-0.3-0.5-0.1-1.1c-1.2,0-1.9,0.4-2.2,1.2
		C89.8,47.3,90.5,46.9,91.3,46.9z M91.8,78.4c0-1.8-1.5-2.8-2.7-3.5c-1.2-0.8-2.8-1.4-4-2.2c-2.8,0.6-5.7-3-8.4-2.2
		c-3.4,0.9,3.1,4.4,2.5,6.4c1,0.8,1.8,1.8,3.7,1.7c1.4-0.7-0.2-4.7,1.3-5.3c1.2,2.2,2.7,4.8,5.4,5.3C90.3,78.7,91.3,79,91.8,78.4z
		 M88.3,116c1.6-1.3,3.6-2.7,2.7-4.8c-2.1,0.4-3.8,2-5,3.5c-0.7,0.9-1.6,2.1-1,3C86.2,118.4,87.4,116.8,88.3,116z M87.3,97.4
		c1.3-1.7,5.2-3.5,3.2-6.3c-4-0.8-3.5,3.5-5.8,4.5c-1.2,0.6-2.2,0.1-2.8,1.5c0,2.1,0.3,4,2.3,4c0.4-0.5,0.5-1.4,0.5-2.3
		c0.6-0.3,0.8-0.9,1.4-1.2C86.4,97.6,87,97.5,87.3,97.4z M88,88.6c1.7-1.8,3-3,3.7-5.3c-0.6-0.8-2.2-0.5-3.4-0.5
		c-1.4,1-4,2.7-5.2,4.8c-0.8,1.4-2.2,5.1,0.1,5.3c0.7,0,2-1.3,2.5-1.9C86.7,90.1,87.5,89.2,88,88.6z M90.2,253.6
		c0.4-0.5,0.1-1.6,0.1-2.4c-1.3-1.6-2.7,0.8-1.8,2.4C88.8,253.8,89.9,253.8,90.2,253.6z M90.2,50.5c-1.2-0.5-2.2,0-3.4,0
		c-2.5,0-4.7-0.9-6.7-1.5c0.3,2.4,1.2,4.3,3.2,4.5C85.9,53.8,88.5,51.5,90.2,50.5z M89.8,245.7c-0.6-1.4-2.3,0-1.5,1.4
		C89.3,247.4,89.8,246.6,89.8,245.7z M88.8,44.8c-1.1-0.2-1.2,0.5-1.7,0.9c-0.6,0-1.2-0.1-1.2,0.5C87.5,46.2,88.3,45.7,88.8,44.8z
		 M87.7,216.1c0.2-0.1,0.9,0.1,0.9-0.2C88,216,87.8,215.6,87.7,216.1z M87.5,222.7c0.3-0.1,0.9,0.1,1-0.2
		C88.3,222.3,87.5,222.2,87.5,222.7z M88.7,225c-0.2,0-0.2-0.2-0.5-0.1c-2.8,1.7-6.2,2.9-8.9,4.7c-0.3,0-0.5,0-0.8,0
		c-0.2,0.6-0.6,0.9-1.5,0.9c-0.1,1.2,0.9,1.3,1.8,1c0.4,0.5,0.9,0.8,1,1.5c-0.2,0.5-0.6,1.2-0.3,1.8c0.9-0.1,1.5-0.6,1.8-1.5
		c0.6-0.4,1.2-0.9,1.5-1.7c1.4-0.7,2.1-2.1,3-3.2C86.7,227.3,88,226.3,88.7,225z M88,20.4c0.6-1.2,0.6-3.6-0.4-4.5
		c-0.3,0-0.6,0-0.9,0C86.6,17.4,87.1,19.6,88,20.4z M88.7,213.6c-0.2-1.1-1.2-1.7-1.9-2.4c-1.4-1.6-2.5-3.1-3.8-4.5
		c-1.1-1.1-2.2-2.4-3.4-3c-0.7,0.6,0.2,1.3,0.1,2.2c-0.5,0.7-0.9,1.4-2.2,1c-0.5,0.8-1.2,1.2-1.4,2.2c-0.1,0.6,0.5,0.9,0.5,1.5
		c0,1.1-0.9,1.4-2,1.5c0.1,0.9,0.1,1.4-0.6,2.2c0.4,0.9,1.2,1.1,1.2,2c-0.1,1.1-1.2,0.9-1.7,1.9c0.6,0.5,0,1.3,0.1,2.3
		c2.2,0.8,1.5,2.4,0.4,3.5c0.2,0.8,0.9,1.1,0.6,2.4c2.8-0.3,1.2,2.4,1.9,3.7c1-0.2,1.6-0.9,2.2-1.5c0.4,0.1,0.6,0,0.9-0.1
		c0.4-0.6,0.9-0.9,1.7-1c0.2-0.2,0.2-0.6,0.5-0.6c0.9-0.4,1.7-1.2,2.5-1.7c0.9-0.5,2.2-0.9,2.5-1.8c-0.4-0.7-1.4-0.1-2,0
		c-2.1,0.3-3.4,0.9-5.7,0.8c-0.6,0.6-3,1.4-3.7,0.4c0.5-0.6,1.6-0.6,2.7-0.5c0.4-0.2,0.5-0.7,1-0.9c2.9-0.4,4.8-1.8,7.7-2.2
		c-0.4-1-1.9-0.6-3.2-0.6c-1.5-0.1-3.2-0.5-4.7-0.7c-1.5-0.1-3.1,0.1-4.2-0.6c2-0.1,4.9-0.4,6.8-0.5c2.1-0.2,4.5,0.5,6-0.5
		c-2.9-0.4-4.8-1.9-7.8-2.2c-0.5-0.3-0.6-0.9-1.3-1c-0.9-0.1-2.3,0.3-2.4-0.7c1.3-0.4,2.9,0,3.5,0.7c2.7-0.6,4.9,1.3,7.4,0.8
		c-0.1-0.8-1.2-1.2-1.7-1.5c-0.6-0.4-1.4-0.9-2.2-1.2c-0.4-0.9-1.5-0.8-1.9-1.7c-0.5,0.1-0.5-0.3-1-0.2c-0.6-1.3-2.6-1.2-3-2.7
		c0.9-0.1,1.2,0.3,1.4,0.9c0.4,0,0.8,0,1.2,0c0.1,0.4,0.6,0.4,0.7,0.8c0.3,0,0.5,0,0.8,0c0.3,0.4,0.7,0.4,0.9,0.9
		C84.6,211.3,86.2,212.9,88.7,213.6z M85.7,42.3c0.2,0.3,1.1,0.6,1.2,0C86.6,42,85.8,41.7,85.7,42.3z M86.3,247
		c0.5-0.6,0.4-1.5-0.1-2C84.6,244.9,84.4,247.5,86.3,247z M86.3,143.7c0.2-4,0.1-9.8-2.8-9.7c-2.6,0.1-1.6,3.5-3.9,4
		c-1.6-3.7-4.5-7.4-10.1-6c-1.2,1.2-1.7,2.5-1.7,5c0,5.3,1.7,11.6,2,17.1c0.3,6,0.6,12,1,16.8c0,0.8,0.3,1.7,0.5,2.5
		c0.2,1,0.3,2.2,0.5,2.7c0.5,1.4,1.9,2.2,2,3.2c0.1,1.7-1.6,3.8-3,4.5c-0.8,0.4-1.8,0-2.2,0.6c-0.3,1.9,1.7,2.4,1.9,4
		c0.2,1.5-1,3-0.1,4.5c2.9-0.4,3.8-2.8,7.1-2.9c-0.2-1.7,0.3-4.3,2.2-3.7c0.8,0.3,0.7,1.9,1.5,2.7c0.1,0.2,0.6,0.2,1,0.4
		c1,0.6,1.9,1.3,3.2,0.5c-0.1-2.3-1.7-4.5-2.5-5.9c-0.1-0.1,0-0.6-0.1-0.8c-0.2-0.4-0.6-0.7-0.9-1c-0.5-0.8-1-1.8-2-1.9
		c-0.6,0.5-0.6,1.1-1.2,1.7c-0.9,0.9-2.4,1.5-3.7,0.7c1.2-4,3.6-7.3,9.1-6.6c2.2-1.9-0.4-2.7-1.2-4.2c-1-1.8-0.9-4.6-1.3-7.3
		c-0.3-1.5-0.4-3.1-0.7-4.5c-0.1-0.9-0.6-1.7-0.8-2.5c-0.1-0.4,0.1-0.9,0-1.3c-0.2-1.2-0.8-2.4-0.9-3.2c-0.1-1.4-0.2-3.5-0.1-5
		c0-1.4-0.3-3.5,1.7-3.7c1.2,1.2,1.2,3.1,1.5,5c0.2,1.1,0.6,2,0.6,3c0.1,1.2,0.1,2.4,0.2,3.7c0.1,1.4,0.4,3.2,1.3,3.9
		C85.7,157.2,86.1,149.3,86.3,143.7z M85.8,253.7c2.4,0.4,2.1-3.3,0-3C85.3,251.2,85.3,253.2,85.8,253.7z M84.6,48.2
		c0.6-0.1,1.9,0.3,2-0.3c-0.6-0.2-1.5-0.6-2.2-0.2C84.5,47.9,84.6,48,84.6,48.2z M81.3,37.1c3.7,0.2,6.3-1.9,4.2-4.8
		c-0.3-0.4-1.1-1.1-1.5-1.4c-1.6-0.9-5.3-1.6-6,0.5c2,0.5,5.8-0.9,5.8,1.9c-2,0.1-6.2-0.9-7.3,1C77.1,35.8,78.9,36.9,81.3,37.1z
		 M85.2,17.9c-0.1-0.3,0.1-0.8-0.4-0.6C84.9,17.6,84.9,17.8,85.2,17.9z M83.8,253.7c1-1.2,0.5-3-0.5-3
		C81.8,250.6,81.3,254.4,83.8,253.7z M82,127.6c0.6-1,2.2-2.7,1.3-4.2c-3,0.1-3.5,2.7-5,4.4c0,1.1-0.4,2.4,0.2,3.2
		C80,130.8,81.2,128.7,82,127.6z M83.6,82.1c-0.9-1.2-2.9-0.1-3.5,0.5c-0.2,0.2-0.6,0.2-0.6,0.4c-1.2,1.1-2.8,3.4-3,4
		c-0.8,1.9-0.1,3.5,1.5,3.7c0.9-0.4,1-1.4,1.2-2.5C80.3,85.9,82.8,84.7,83.6,82.1z M82.5,247.2c0.7-0.4,0.9-2.1-0.2-2.2
		C81.1,245.1,81.2,247.3,82.5,247.2z M79.5,121.9c1-1.1,2.4-2.5,2.3-4.2c-1.5,0.2-2.8,1.4-3.8,2.5c-1.2,1.2-2.4,2.9-2.2,4.2
		C77.2,124.2,78.5,122.9,79.5,121.9z M81,253.6c0.1-0.9-0.1-1.7,0-2.5c-1.6-1.4-2.4,1.1-1.7,2.5C79.7,253.9,80.5,253.7,81,253.6z
		 M78.1,107.3c1-1.8,4-2.6,2.7-5.5c-0.1-0.3-1.4-1.4-1.8-1.2c-2.6,1-6,7.6-2,9.1C78,109,77.6,108.1,78.1,107.3z M75.7,116.7
		c3.7,0.9,7.6-3.6,4.8-6.3c-0.2,0-0.4,0-0.5,0c-0.9,0.9-1.9,1.8-2.7,2.9C76.6,114.3,75.8,115.4,75.7,116.7z M75.6,59.2
		c1.4,0.8,3.6,1.9,5.4,1.2c-0.1-2.4-2.8-2.7-4.2-3.8c-0.9-0.8-2.2-2.6-2.2-4.2c0.1-1.8,2.7-2.5,1.2-4.7c-0.9-0.4-1.4-0.1-1.8,0.4
		c-1.6,1.9-1.5,6.1-1,9.1C73.7,58.1,74.2,58.5,75.6,59.2z M78.5,247c1.2,0.1,1.7-0.9,1.3-1.7C78.7,244.3,77.4,246.1,78.5,247z
		 M79,94.7c0.1-0.4,0.3-0.9,0.1-1.3c-1.2-3.4-7.1,3.9-3.2,5.2C77,97.8,78.5,96,79,94.7z M76.7,253.7c2.2,0.4,1.4-3.7-0.3-2.9
		C75.5,251.3,75.6,253.6,76.7,253.7z M74.9,70.2c0.9-1,2.2-2.2,2.5-3.7C76.8,66,75.8,66,74.7,66c-1.2-0.6-2.2-1.4-2.7-2.8
		c-1.8-0.4-2.5,1.6-4.5,1.2c-0.9-0.2-0.9-1.3-2.2-1.2c-0.3,1.7,1.4,2.9,2.3,4c1.1,1.2,1.9,2.6,2.9,3.8c0.3,0.5,0.3,1.4,0.6,1.7
		C72.8,72.4,73.9,71.2,74.9,70.2z M76.1,247c0.4-0.4,0.6-2-0.4-2c-1-0.1-1.3,1.4-0.6,2C75.4,247,75.7,247,76.1,247z M73.4,83.4
		c1.4-1,2-2.4,1.8-4C74.6,79,74,79,73.5,79.3c-1.7,1-4.6,3-5,4.8c0.6,0.6,1.9,0.6,2.9,0.4c0.3-0.1,0.4-0.4,0.8-0.6
		C72.6,83.6,73.2,83.6,73.4,83.4z M74.6,253.6c0.3-1.2,0.4-2.7-0.6-2.9C72.2,250.4,71.8,254.7,74.6,253.6z M69.7,210.2
		c1.9-3.1,4.8-5.9,6.3-9.1c-4.4,1.4-7.1,4.6-9.8,7.9c-0.1,3.3,0.6,7.6-1.3,9.2c-2.2,0.1-3.8,0.9-5.9,0.4c-0.9-0.3-1.4-1.6-2.2-1.9
		c-2.9-1.1-4.8,1.5-6.9,1c-0.8-0.2-0.8-0.9-1.7-2c-0.5-0.6-1.4-1.2-1.7-1.7c-1.1-1.6-0.7-2.7-1-4.8c-0.4-2.2-2.1-3.5-3.4-5
		c-1.9-2.2-2.5-3-6.4-2.8c-1.2,1.8-2.2,2.7-2.8,5.2c-0.6,2.2-0.6,6.7,1.2,7.6c1.2-0.6,1.3-2.3,1.2-4.2c-0.1-0.7-0.9-0.9-0.8-1.9
		c0.3-0.9,1.6-0.8,2.3-1.4c-0.7-0.7-1.9-0.9-2.2-2.2c1.3-2.7,5.5-0.5,6.4,1.2c1.2,3.8,3.3,6.9,4.8,10.4c1,0.4,2.2,0.7,1.9,2.5
		c-2.1,2.3-5,1.1-6.6-1.2c-1.4-2-1.9-5.1-2.4-7.3c-0.6,0.4-0.6,1.4-0.8,2c-0.2,0.7-0.6,1.5-0.5,2.4c-0.9,0.9-1.3,1.4-1,2.5
		c0.2,1.2,1.7,1.4,1.8,2.5c0.2,1.7-1.2,2.6-2.2,3.9c0.6,2.2,1.6,5-0.1,6.7c-1,0.2-2.3,0.8-3,1.8c-0.8,1.2-1.6,5.6,0.8,5.5
		c0.4-1.2,0.2-3.3,0.7-4.8c1.4-2,3.7-3.2,5.3-5c0.6-0.9,0.4-3.4,2.2-3.5c1.7-0.1,2.1,1.8,3.2,3c0.7,0.9,2.9,1.9,4.9,1
		c0.4-0.2,0.4-0.6,0.8-1c1.9-2.3,2.1,0.7,3.5,1.5c1.2,0.6,2.7,0.4,4,0.6c1.3,0.3,2.2,0.9,3.2,0.9c3.7,2.1,8.1,3.5,8.4,9.1
		c0.6,0.2,1.7,0.2,2.2,0c0.4-1.1-0.8-1.7-0.6-3c-1.4-1.7-2.2-3.5-4-4.9c-0.7-0.6-1.7-0.7-2.4-1.2c-1.1-0.8-2.4-2-2.8-3.2
		c-0.1-0.4-0.2-1.2-0.4-1.9c-0.6-2.8,0.2-3.8,2-4.9c1.2-0.7,3.8-2,4.2-3c0.5-1.1-0.3-2.6-0.1-3.7c0.1-0.9,1-2.4,1.4-2.9
		C69.5,210.7,69.6,210.4,69.7,210.2z M72.6,117.7c0.5-2.4-1.6-3.8-1.5-5.5c0.1-1.2,1-1.7,1.4-3c-1.2-2-3,0.3-3.4,1.5
		c-0.4,2.1,0.6,4,0.9,5.7c0.1,1.5-0.5,3,0.3,3.5C71,119.9,71.8,118.3,72.6,117.7z M70.9,93c0.9-0.9,2.2-2.1,2.3-3.5
		c-1.3-0.8-3,0.2-3.8,1c-1.2,1-2.4,2.9-2,4.5C68.7,95.1,69.9,93.9,70.9,93z M71.9,247.2c1.1,0.1,1.3-1.8,0.5-2.2
		C71,244.9,70.9,246.8,71.9,247.2z M72.4,123.8c-1.5-0.5-2.4,0.9-2.5,2.3c0.1,0.1,0.4,0.2,0.5,0.4C71.6,126.1,72.2,125.1,72.4,123.8
		z M70.9,102.4c0.6-0.9,1.4-2.3,1.5-3.8c-0.9-0.5-2-0.1-2.9,0.5c-1.2,0.9-3.2,4.8-1.5,5.9C69.3,104.6,70.2,103.4,70.9,102.4z
		 M71.4,253.6c0.4-0.5,0.4-1.7,0.1-2.4c-1.5-1.8-2.5,1.3-1.5,2.5C70.6,253.8,71,253.6,71.4,253.6z M68.7,61.9c0.8-0.1,3-2.4,2.9-3.3
		c-0.1-0.8-1.4-1.1-1.9-2c-0.6-1.4,0.1-2.4-1-3.4c-2.6,0.4-4.7,0.9-5.3,2.4C62.5,57.4,67.3,62.1,68.7,61.9z M71.2,181.1
		c0.5-0.3,0.5-1.5,0-1.8c-1.4-0.4-1.7,1.2-1,1.8C70.5,181.1,70.9,181.1,71.2,181.1z M70,224.5c0.1-0.5,0.5-2.1-0.4-2.2
		C69.7,223.1,69.5,224.2,70,224.5z M69.4,247c0.8-0.7,0.4-2.6-1-1.9c-0.2,0.7-0.4,1.2,0,1.9C68.7,247,69,247,69.4,247z M69.2,221.3
		c0-0.2,0-0.4,0-0.6c-0.4-0.1-0.6,0-0.8,0.1C68.3,221.3,68.7,221.3,69.2,221.3z M67,50c1.3-1.5,2.6-2.6,2-5
		c-1.4-0.4-2.3,0.4-3.4,0.1c-1.5-0.4-1.4-2-2.7-3c-0.6-0.1-0.5,0.4-1,0.4c-0.3,2.7,0.9,5.3,1.4,7.9c0.1,0.7-0.3,1.6,0.5,2.2
		C65.4,52.4,66,51.2,67,50z M68.9,178.6c0.6-1.4,0-3.7-0.2-5.8c-0.3-4.2-0.9-9.4-1-13.5c-0.1,0-0.2,0-0.3,0
		c-1.2,1.1-1.1,3.2-1.4,5.3c-0.5,4-1.2,9.6-1.9,13c-0.5,1.1-1.7,1.4-1.7,3C64.3,182.1,68.4,179.8,68.9,178.6z M65.6,79.9
		c1.9-0.5,3.8-2.2,3-4.2C66.4,74.9,63.8,78,65.6,79.9z M68.7,253.1c0.4-3.3-2.4-2.5-2.3-0.7C66.4,253.7,68.1,254.2,68.7,253.1z
		 M66.1,187.5c-0.3-1.2,0.9-2.9,0.9-4.2c-1.3-0.5-1.9,1.2-2.7,1.8c0.6,2.7-1.9,3.2-1.4,5.3c0.1,0,0.4,0,0.4,0.1c1-0.1,1.1-1.2,2.3-1
		c0,1.2-0.9,2.5-0.1,3.5c0.4,0,0.9,0.1,1.2-0.1c-0.7-1.7,0.6-2.7,1.2-3.9C67.2,188.4,66.4,188.5,66.1,187.5z M67.5,123.3
		c-1.3-2-3.5,1.2-2.2,2.7C66.6,125.6,67.3,124.6,67.5,123.3z M64.8,118.9c1.3-0.1,1.9-0.9,2-2.2c-1-1.3-3.2,0.4-2.4,2
		C64.6,118.7,64.8,118.7,64.8,118.9z M65.1,239c1.3,0,0.9-1.7,1.5-2.4c-0.3-0.5-0.5-1.2-1.2-1.3C64.8,235.9,65.3,237.7,65.1,239z
		 M65.6,247.2c2.3-1.6-1.4-3.2-1-0.9C64.7,246.8,65,247,65.6,247.2z M66.1,108.9c-0.2-0.1-0.3-0.4-0.5-0.6c-1.9,0.2-4.2,3.5-2.5,5
		C64.8,112.5,65.9,111.1,66.1,108.9z M65.6,141c0.1-3.1,0.1-6.4-0.5-8.9c-0.2,0-0.3-0.2-0.5-0.3c-0.9,1.5-0.9,5-0.8,7.2
		c0.1,1.9-0.4,4.5,1.3,4.9C66,143.3,65.6,142.1,65.6,141z M62.8,89.1c2.2,0.2,2.9-1.7,2.7-3.3C63.6,85.2,61.9,87.5,62.8,89.1z
		 M65.1,253.6c0.9-1.9-0.7-4-1.8-2C63,253.1,63.8,254.2,65.1,253.6z M64.5,94.2c-1.6-0.3-3.2,1.7-2.9,3.4
		C63.5,97.9,64.3,96,64.5,94.2z M61.8,105.9c1.9,0.1,3-2.2,2.2-3.8C62.1,102.1,61,104.3,61.8,105.9z M63,163.2
		c1.2-3.5,1.9-8.1,1-12.6c-0.6-3.1-1.9-6.2-2.5-9.7c-0.6-4-0.4-8.3-1.2-11.6c-0.3-1.1-1.1-2.1-1-3.2c-1-0.3-0.3-2.3-1.9-2
		c-1.3,2.8-3.1,4.7-5.2,6.9c-1.2,1.3-3,2.6-3.7,4c-0.9,1.8-0.2,3.8,0,5.9c0.5,4,1,8.6,0.7,13.2c-0.1,1.9-0.3,4-0.7,5.9
		c-0.1,0.9-0.6,1.7-0.8,2.5c-0.6,3-0.9,6.3-1,9.4c-0.1,3.5-0.7,7,0.5,9.7c1.8,0.1,4.2-1,4.5,1.2c0.6,3.9-6.4,2.9-9.3,4.2
		c-0.4,1.4,0.6,1.7,0.4,2.9c-0.2,1.2-1.7,1.4-1.7,2.3c-0.1,1,1.6,2.4,2.7,2.5c1.2,0.1,3.1-0.7,4.5-1.3c1.6-0.7,3-1.5,3.7-2.4
		c0-0.6,0-1.4,0-2c2.4-3.7,4-8.3,4.8-13.6c0.9-2.7,2.2-5,3.5-6.8C61.4,167,62.3,165,63,163.2z M61.6,126.3c1.3,0.6,2.2-0.7,1.4-1.7
		c-0.5,0.1-1.1-0.1-1.4,0.2C61.3,125.1,61.5,125.8,61.6,126.3z M63,247.2c1.4-2.4-2.6-2.2-1.2,0C62.2,247.2,62.6,247.2,63,247.2z
		 M62.5,82.4c1.1-0.1,1.2-2.1-0.4-2.2C61,80.8,61.5,82.5,62.5,82.4z M62.3,253.6c0.4-0.8,0-1.7-0.2-2.4c-1.4-0.9-2,1.2-1.5,2.4
		C61,253.9,61.9,253.7,62.3,253.6z M60.3,121.2c0.9-0.4,1.7-0.8,1.7-1.9c-0.1-1.4-2.5-2.9-2.9-0.9C58.9,119.4,59.4,120.4,60.3,121.2
		z M61.6,74.9c0.5-1.7,0.6-3.1,0-4.5c-0.9-2.1-2.2-3.9-4.2-4.7c-1,0.1-1.4,0.9-2.4,1.2c-1.7-0.6-3.5-1.7-5-2.5
		c-0.6-0.3-1.1-0.8-1.6-1c-0.7-0.4-1.5-0.4-2.2-0.6c-1.2-0.5-2.4,1.8-2.5,2.3c-0.1,0.7,0,1.7,0.2,2.5c0.4,2,2,4.9,3.2,5.9
		c0.8,0.7,1.8,0.6,2.7,1s2.1,3,3.2,2.9c1.3-0.2,1.6-2.8,1-4.2c0.8-1.2,1.2-3,2.5-3c1.4,0,4.2,4,2.7,5c-0.9,0.1-1.2-0.5-2.2-0.3
		c-1.2,2.2,0,5.2,2,5.7C60.6,79.1,61.1,76.9,61.6,74.9z M62.1,186c-2.2-0.7-5.1,0.9-4,3C60,188.6,61.6,187.9,62.1,186z M61,88.5
		c0-1.2-2.2-1.6-2,0.5C59.7,89.8,61,89.3,61,88.5z M60.8,55.7c0.4-0.9-0.5-1.5-0.5-2.5c-0.8-1.6-1.7-3.4-2.5-5.2
		c-0.2-0.4-0.1-0.9-0.4-1.4c-0.4-0.9-1.4-1.9-0.5-3c1,0.2,1.2,2,2.4,1.5c0.8-0.9-0.1-2.2-1-2.9c-1.2-0.9-2.7-1.5-4.4-2
		c-2.4-0.6-4.9,0-6.2,0.9c-1.9,3.7,2.6,4,5,5.5c1.5,1,1.7,2.3,2.8,2.9c0.6,0.1,1.6-0.2,1.9,0.1C57,52.6,58,56.7,60.8,55.7z
		 M60.3,63.6c1.3-1-0.9-5-1.5-5.3c-1.1-0.4-2.2,0.6-1.9,1.9C57.3,61.6,59,63.1,60.3,63.6z M58.4,94.4c0.8-0.1,1.3-0.4,1.2-1.4
		c-0.5-0.5-0.9-0.1-1.5,0.1C58,93.8,58.2,94.1,58.4,94.4z M59.4,247.2c0.5-0.4,0.6-2-0.4-2c-0.7,0.1-0.9,0.7-1,1.5
		C58.5,246.9,58.7,247.3,59.4,247.2z M59.4,253.2c0.6-3.5-3.5-2.5-1.9,0.4c0.1,0,0.4,0,0.4,0.1C58.7,253.9,59,253.5,59.4,253.2z
		 M59.3,100.2c0.4-0.3,0.4-1.5,0-1.8c-0.7-0.3-1.1,0-1.5,0.5C57.6,99.9,58.2,100.4,59.3,100.2z M56.8,104.8c0.9,0.5,2.2,0.1,1.8-1.2
		C57.7,103.1,56.9,103.9,56.8,104.8z M57.3,112.2c0.4-0.4,1.2-0.6,1.3-1.4C58.2,109.1,55.8,111.5,57.3,112.2z M56.8,88
		c2.2-2.1,0.7-6.2-1.4-7.4c-0.5-0.1-0.6,0.3-1,0.4c-0.5,2.6,1.2,6.4-1.9,6.9c-0.3,1.9,1.4,4.5,0.7,6c-0.4,0.6-0.9,0.7-1.9,1.2
		c0.4,2.2,0.9,4.3,2.4,5.4c1.2-0.7,1.1-2.4,1.3-3.7C55.7,93.7,56.2,90.6,56.8,88z M55.4,245.1c-2.2,1.9,2,3.1,1,0.1
		C56.1,245.4,55.9,245,55.4,245.1z M56.1,253.4c-0.1-0.7,0.2-1.8-0.1-2.3c-1.3-0.6-2.2,0.6-1.9,2.2
		C54.5,253.7,55.6,253.9,56.1,253.4z M52.4,116.8c0.9,0.9,2,2.4,3.5,2.2c-0.3-2.2-3-2.7-2.9-4.7c0.1-1.5,1.9-1.4,1.9-3.4
		c-1.3-0.9-3.7,0.4-5-0.1c0.1-1.5,1.6-1.7,2.2-2.7c0.6-1.7,0-6.3-1.7-6c-2,0.2,0.2,2.7-0.1,4.4c-0.2,1-1.7,1.3-2.7,1.7
		c-0.4,2.9,1.3,3.8,1.9,5.7C50.5,114.7,51.4,115.8,52.4,116.8z M55.1,57.4c1.4-0.5,1.4-2.9,0.7-4.2c-0.5-0.2-1-0.4-1.4-0.9
		c-0.9-2.9-3.6-4.1-6.8-4.7c-0.4,0.4-0.4,0.9-0.4,1.5c0.4,3.3,4.7,4.7,6.7,6.6C54.1,56.5,54.3,57.2,55.1,57.4z M54.6,63.9
		c1.7-2.4-0.9-4.2-2.7-5.7c-1.9-1.6-3.4-3.5-4.9-2c-0.2,3.2,1.6,4.4,3.9,5C52.2,62.1,53,63.4,54.6,63.9z M52.2,126.3
		c2.3-0.2,3-3,2.3-5.3c-0.4,0-0.6-0.2-1.2-0.1C53,122.6,51.9,124.4,52.2,126.3z M52.9,253.6c0.3-0.6,0.2-1.8,0-2.4
		c-1.4-1.2-2,0.7-1.7,2.4C51.7,253.7,52.5,253.9,52.9,253.6z M52.8,247.2c0.4-0.4,0.6-2.1-0.4-2c-0.6,0.1-0.9,0.6-1,1.4
		C51.7,246.9,52,247.3,52.8,247.2z M51.2,37.8c0.5-2.5-3.7-3.5-4-1.9C46.8,37.4,49.7,39.1,51.2,37.8z M50.1,85.5
		c1.9-0.9,1.2-4.2,0.9-6.4c-1.8-2.3-5-4.6-8.9-3.8c-3.5-0.8-3.7-6.5-8.1-5.3c0.1,3.1,4.2,4.4,5,7.1c0.5,1.6-0.4,3.5,0.4,5.3
		c2.6-0.4,2.7-3.2,4.8-4c1.2,0.9,2.2,2,3,3.3C48.1,82.9,48.4,84.9,50.1,85.5z M49.4,130.6c0.6-0.1,1.2-1.2,0.7-2.2
		c-0.9-0.4-2.2,0.4-3.1-0.4c-0.6-2.3-0.9-4.8-3.2-5.5c-0.2,0.7-0.1,1.9,0.2,2.9C44.9,128.2,47.9,131.1,49.4,130.6z M49.9,123.9
		c0.9-1.3,0.1-2.3-0.4-3.2c-0.9-1.9-2.6-4.8-4.5-4.5c-0.6,1.8,0.9,3.9,1.7,5C47.5,122.2,48.6,123.8,49.9,123.9z M49.7,90.4
		c0.1-2.2-1.6-3.2-2.4-4.5c-0.6-1.2-0.6-2.2-1.4-3c-1.7-0.1-2.9,0.1-3.2,1.2C42,86.9,46.3,89,46.9,91c-1.6,1-4.1-1.7-5.8,0
		c0.2,3.6,3.6,4,4.2,7.3c-1.9-0.6-5.8-1-6.2,0.9s4.4,3.2,3.9,5.7c-0.8,3.2-4.8-1.7-6.4-0.3c-0.4,4.4,4.8,4.6,6.6,7.3
		c-0.1,1.1-0.1,2.1,0.6,2.4c1.4-0.5,1.9-2,1.7-4c-0.4-0.9-1.5-1.1-1.9-2c0.1-1.2,1.7-1.8,2-3c0.4-1.5-0.4-2.5-0.7-4
		c0.5-0.9,1.4-1.4,2.2-1.9c0.3-1,0.7-1.7,0.6-2.7c-0.1-1.3-1.3-2-1.5-3.2c0.8-0.4,1.9-0.4,2.5-0.9C49.2,91.7,49.7,91.1,49.7,90.4z
		 M48.9,247.2c1.1,0.2,1.2-2,0.2-2C48,245,47.8,247.2,48.9,247.2z M48.9,253.7c2.2,0.3,1.3-3.5-0.4-2.7
		C47.6,251.5,47.6,253.6,48.9,253.7z M46.3,253.7c0.7-0.4,0.6-2.2,0.2-2.9c-1.5-0.1-1.9,0.9-1.7,2.4
		C45.3,253.5,45.6,253.9,46.3,253.7z M46.6,149.2c0-5,0.3-10.6-2.1-13.1c-0.1,0-0.2-0.2-0.4-0.1c-0.1,0.2-0.3,0.3-0.4,0.5
		c0.1,1.8,0.1,3.9,0.1,5.7c0.1,2.5,0.8,5,1,7.1c0.1,1.7,0.1,2.7,1.4,3.2C46.8,151.5,46.6,150.4,46.6,149.2z M46.2,247.2
		c0.5-0.5,0.6-1.9-0.4-2c-0.7,0.1-0.9,0.7-0.9,1.7C45.4,246.9,45.6,247.2,46.2,247.2z M43.8,45.5c3.1-2.6,1.3-9.3-0.5-12
		c-2-1-4-1.5-6.3-0.6c-1.2,0.4-1.7,1.5-2.7,1.7c-0.9,0.1-1.3-0.2-2-0.1c-0.9,0.4-1.2,1.5-2.2,1.9c-2.2-0.4-4,1.9-3.9,3.3
		c0.1,0.5,0.7,1.5,1.2,1.9c1.1,0.9,2.8,1.2,4.2,1.7c0.6,0.2,1.5,0.6,1.9,0.9c1.4,1.2,0.2,4.8,1.5,6c1.5,0,2.7-1.7,3-3.5
		c0.2-1.6-0.9-3.1-0.2-4.2c2.2,1,3.5,4.1,2.4,6.6c-0.8,1.9-3.1,2-4.5,3c0.2,1.9,2.7,1.7,2.9,3.7c-0.6,1.4-2.7,0.4-3,1.7
		c-0.5,1.8,2.4,1.9,3.5,2.4c0.9,0.4,1.4,1,1.8,1.5c0.3,0.4,0.2,1.2,0.5,1.7c1.1-0.1,1.5-0.9,1.7-1.7c0.4-2.4-1.4-4.1-1.7-5.9
		c0.5-0.5,1.9-0.1,2.4-0.6C44.4,52,43.5,48.7,43.8,45.5z M43.5,253.6c0.6-0.4,0.3-1.8,0.4-2.7c-0.7-0.5-1.5-0.1-2,0.4
		C41.7,252.6,42.2,253.6,43.5,253.6z M42.3,246.8c0.4,0.2,1.2-0.5,1.2-1.3C42.7,243.6,40.6,246.2,42.3,246.8z M43,72
		c0-1.8-0.7-2.9-1.4-4c-0.9-1.5-1.6-2.3-2.5-3.5c-1.3-1.6-2.6-3.2-4.5-2.8c-0.1,0-0.2,0.1-0.1,0.3c1.1,4.3,6,5.5,6,10.4
		C41.3,73.1,42.5,72.8,43,72z M41.5,118.4c0-0.5-0.4-2.1-0.7-2.7c-0.3-0.6-1.3-1.4-2-2.2c-1.1-1.2-1.7-2-2.8-2.1
		c-0.1,0.3-0.4,0.2-0.5,0.4c-0.3,2.5,3.9,5.6,2.3,7.4c-1.9,0.5-2.4-1.7-4.3-1.7c-0.9,2.9,3.5,3.9,2.2,7.8c2.4,0,2.4-2.5,3.5-4
		C39.9,120.2,41.4,119.4,41.5,118.4z M37.6,190.2c2.2,0.9,3-1.8,3-4.2C38.5,184.5,37.3,188.3,37.6,190.2z M40.3,87.5
		c0.1-2.2-3.7-4-4-6.9c-0.1-0.6,0.4-1.3,0.2-2.2c-2.5-1.6-3.7,2.4-2.9,4.7c0.6,1.9,4,3.5,3.9,5.9c-2,2.1-3.3-1.4-5.3-1.5
		c-0.8,1.4,0.4,3,1,4.2s2.2,2.7,0.9,4c-2-0.6-2-3.1-4.2-3.5c-1.9,1.7-0.1,3.8,0.8,5.3c1.1,1.6,2.9,3.1,2.7,4.8
		c-2.7,0.8-3.4-1.9-5.3-2.5c-0.4,0.6-0.1,1.7-0.1,2.5c0.4,0.6,0.9,1.1,1,2c1.4,1.1,1.8,3.1,3.9,3.5c0.6-0.2,0.4-1.2,0.5-2
		c0.1-1.3,1.9-1.5,2.3-2.8c0.4-1.4-0.4-2.7-0.1-3.9c0.4-1.6,1.7-1.5,2.5-2.9c0-1.9-0.4-3.5,0-5.2C38.7,89.6,40.2,89.1,40.3,87.5z
		 M38,209.1c0.3-0.5,0.1-1.5-0.7-1.4C37.3,208.4,37.5,208.9,38,209.1z M37,196c1.7,0.1,1.4-3.4-0.4-3.5C35,192.9,36,195.9,37,196z
		 M34.5,228c0.1-0.9,0.3-1.8-0.5-2.2c-0.9,1.8-3.5,3-4.8,5c-0.1,0.3-0.1,0.8-0.3,1.2c-0.5,0.9-2,3.4-0.4,4.7
		c0.6-0.2,0.2-1.4,0.4-2.2C30.1,231.8,31.9,229.6,34.5,228z M32.6,67c0.3-6,0.9-13.4-2.5-14.9c-1.3-0.6-3.1,0.1-3.5-1.2
		c-0.1-0.8,0.9-0.6,1.4-0.8c0.4-0.2,0.9-0.6,1.3-0.9c1-0.5,2.3-0.7,2.9-1.7c-0.1-0.8-1-1.3-1.7-1.7c-1.2-0.6-2.4-1-3.5-1.4
		c-1.2-0.4-3-1-4-1.2c-1.1,0.9-2.4,1.7-3.7,2.4c-2.4,1.2-5.5,2.2-5.3,5c1.9,0,2.2-2.7,4.5-2.5c1.2,0.1,3.7,2.2,3.5,3.5
		c-0.2,1.6-3.6,1.4-4,3c-0.3,0.8,0.3,1.7,0.1,2.3c-0.4,1.4-1.9,1.3-2.4,2.4c0.8,3.2-2,3.6-3,5.5c2.8,3.5,6.8-1.9,7.8-3.9
		c-0.4-0.9-1.5-1-1.9-2c0.7-0.8,1.4-1.2,2.2-1.3c2-0.4,3.7,1.2,5.5,1.5c1.6,0.2,2.4-0.7,3.7-0.2c-0.1,2.5-2.7,1.9-4.4,2.5
		c-0.4,0.2-1.7,0.9-2,1.4c-0.9,1.1-0.6,2.6,0,3.7c0.3,0.6,1.1,1.7,1.7,2.4c0.6,0.7,1.4,1.9,2.4,1.4c0.6-2.3-2.7-2.7-2.2-4.9
		c1.9-0.4,3.3,1.6,3.7,3.2c0.6,3.3-1.6,6-3.7,6.9c-3.3-0.6-4.5,3.7-2.4,5c2.7-0.9,5.4-3.4,7.2-5.5c0.8-0.9,1.9-2.2,2.2-3.2
		C32.8,70.4,32.5,69,32.6,67z M30.7,197c0.6,0.3,1.9,0.2,1.7-0.7C31.9,195.6,30.6,196.1,30.7,197z M31.9,114.3c1-1,0.2-2.6-0.4-3.5
		c-0.6-1-1.7-2.2-2.4-2.7c-0.2-0.1-0.3-0.2-0.5,0c-0.1,0-0.2,0.1-0.3,0.1c0,1.1,0.7,1.4,0.6,2.7C30.2,111.9,30.1,114.1,31.9,114.3z
		 M28.2,227.5c0.2-2.9,0.5-6.6,0.4-9.9c-0.1-2.2-0.1-4.4-1.2-5.8c-0.2,0-0.4,0-0.5,0c-1.4,4.7-1.4,12.5,0.1,17.4
		C27.6,228.9,27.7,228,28.2,227.5z M26.2,201.5c0.7,0.1,1-0.2,0.9-0.9c-0.3,0-0.6,0-0.9,0C26.2,200.9,26.2,201.2,26.2,201.5z
		 M25.2,201.7c-0.2,0.9,1.2,0.9,0.9,0C25.8,201.7,25.5,201.7,25.2,201.7z M23.7,226.4c0.8-5.3,0.9-11.4-0.1-16.6
		c0,0.2-0.2,0.2-0.1,0.5c-0.6,3.4-0.8,8.6-0.5,12.6C22.9,224.1,22.9,225.6,23.7,226.4z M19.1,75.2c1.1-0.1,1.7-1.2,2-2.4
		c-0.4-0.6-1-1.2-2.2-1.2c-0.7-0.6-1.1-1.6-1.9-2C15.1,71.2,17,75.4,19.1,75.2z M12.8,60.3c1.7-2.1,3.3-3.5,3-6.4
		c-0.5-0.2-0.6-0.7-1.4-0.6c-0.2,0.1-0.4,0.2-0.5,0.4c-2.2,1.6-5.8,4.9-6.2,7.3c-0.3,1.7,0.4,3.2,1.5,3.2
		C10.5,64.1,11.9,61.4,12.8,60.3z"/>
	<path class="st0" d="M152.5,270.9c3.8-0.7,3.5,2.5,0.1,2.2c-0.1,1.6,0,3.7,0,5.9c0,2.1,0.3,4.3-0.3,5.8c-0.5,0.3-1.2,0.3-1.7,0
		c-0.4-1.2,0-4-0.1-6c-1.4-0.8-4.5-0.4-6.6-0.2c-1.4,1.7-0.4,3.6,0.6,4.8c0.5,0.5,1.4,0.7,1.4,1.4c0,2.1-1.9,1.1-3-0.3
		c-1.1-1.3-2.5-3.9-1.5-6.2c1.4-3,5.4-1.2,8.9-2.2c0.2-0.6,0.2-2.3,0-3c-3.7-0.4-8-0.1-12-0.1c-1,3.2,0.3,8.8-0.6,12.1
		c-0.5,0-0.9,0-1.4,0c-0.9-0.6,0.1-2.3-0.5-3.4c-0.9,0-1.7,0.6-2.7,0.6c-3.3,0.3-5.9-2.1-6.4-4.7c1.4-0.9,3.8-0.2,4-2.3
		c0.1-1-0.4-1.6-1-2.4c-2,0.1-4.8-0.4-6.2,0.4c-0.1,1.6,0,3.8,0,6c0,2,0.4,4.4-0.5,5.7c-0.6,0.1-1.1,0-1.5-0.2
		c-0.6-1.3,0.2-4.5-0.4-6.3c-0.4-0.4-1.5-0.4-2.2-0.1c-0.3,1.1,0.4,1.7,0.1,3c-0.2,1.3-1.4,2.6-2.5,2.9c-3.5,1.1-7.3-2.1-6.8-5.5
		c2.3-0.7,2.1,2.4,3.3,3.4c1.4,0.7,3.2,0.5,4-0.5c-0.1-0.8,0.2-1.9-0.1-2.4c-0.4-1.5-3.1-0.4-3.2-1.8c-0.2-2.1,5.1-0.4,7-1.2
		c0.7-0.4,0.6-2.2,0.4-3c-2.7-0.5-7.1,0.1-10.4-0.1c-1.1-0.1-2.3,0.1-2-1.5c1.3-0.9,3.2-0.5,4.7-0.5c11.6,0,24.2,0,35.9,0
		c0.1-0.9-0.9-1.6-1.5-2.2c-0.7-0.7-1.5-1.3-2-2c0.5-3.1,2.6-0.1,3.9,1.3C151,269.3,151.8,270.4,152.5,270.9z M136.1,278.8
		c0-1.9,0-3.7,0-5.5c-0.5-0.7-2.4-0.4-3.5-0.2c0.3,1,0.6,1.7,0.5,2.7c-0.1,1.1-1.2,1.9-1.8,2.5c-0.4,0.1-0.9,0.3-1.4,0.3
		C130.5,281.1,135,280.5,136.1,278.8z"/>
	<path class="st0" d="M99.2,271.8c0.1,1.3-1.5,1-2.7,1.4c-0.5,3.5,0.1,8.2-0.4,11.7c-0.5,0.2-1.4,0.2-1.9,0
		c-0.5-0.8,0.3-2.1-0.3-2.5c-3.6,1.7-7.3,0-7.6-3c-0.1-1.3,0.4-2.6,0.8-3.2c0.3-0.4,1.8-1.4,2.5-1.5c1.7-0.3,2.5,0.4,2,1.5
		c-0.4,1-0.8,0.4-2,0.6c-0.6,0.6-1.1,0.9-1.2,1.9c-0.1,3,4.2,3.1,5.5,0.8c-0.1-2,0.1-4.7,0-6.2c-2.7-0.7-7.7-0.1-10.4-0.4
		c-0.9,3.3,0.1,8.4-0.5,12c-0.5,0.2-1.3,0.2-1.8,0c-0.4-1.3,0.3-3.7-0.2-5.2c-0.7-0.6-3-0.4-4-0.2c-0.3,0.5-0.1,1.6-0.1,2.4
		c-0.8,1.2-1.8,2-3.4,2c-4.6-0.1-4-7.4,1.2-6.6c0.4-1.1,0.1-2.8,0.1-4.2c-0.7-0.4-2.2-0.2-3.7-0.2s-2.9-0.1-3.5,0.2
		c-0.5,3.5,0.1,8.2-0.4,11.7c-0.5,0.2-1.4,0.2-1.9,0c-0.4-0.9,0.1-2.5-0.1-3.2c-1.7,0.4-3.3,1-5,0.5c-1.5-0.4-4.6-2.7-3.7-4.8
		c0.5-0.6,1.4-0.2,2.2-0.5c1.5-0.5,2-2.8,0.1-4c-5.5,0.1-11.6-0.2-16.9,0.2c-0.4,1.4-0.2,3.6-0.2,5.7c0,2.2,0.1,4.3-0.1,6
		c-0.5,0.2-1.3,0.2-1.8,0c-0.5-1.4,0.1-4-0.4-5.4c-1.2-0.4-3.2-0.1-4.7-0.1c-0.7,0.3-1.1,0.9-1.5,1.4c0.4,1.9,3.3,2.4,2.7,5
		c-1.2,0.7-1.9-0.4-2.5-1.2c-1.3-1.4-2.4-2.7-3.7-4.3c-0.6-0.9-1.2-1.5-0.2-2.4c1.4-0.2,1.3,1,2.4,1c1.3-0.8,1.4-3.8,1-5.7
		c-1.2-0.5-3.6,0.2-4.5-0.5c0-0.5,0-0.9,0-1.4c1.9-0.6,4.2-0.4,6.2-0.4c14.9,0,30.9,0.1,45.7-0.1c-0.3-0.9-1.2-1.3-1.9-2
		c-0.6-0.6-3-2.8-1-3.4c1.6-0.4,4.2,4.8,5.7,5.4c1.9,0.3,4.8,0.1,8.4,0.1C93.9,270.9,99,270.3,99.2,271.8z M81.2,277.2
		c0.3-1,0.3-3.1,0-4c-0.9-0.3-3-0.3-4,0c-0.3,1-0.2,3.1,0,4.2C78,277.4,80.1,277.5,81.2,277.2z M74.6,281.7c0.2-0.6,0.6-1.6,0.2-2.2
		C72,278.2,71.5,282.9,74.6,281.7z M65.4,278.7c-0.1-1.2,0.1-4.3,0-5.5c-0.9-0.3-2.4-0.2-3.2-0.2c0.2,2.2,0.1,4.8-1.9,5.5
		c-0.6-0.1-0.8,0.2-1.2,0.4C60,281.1,64.6,280.6,65.4,278.7z M39.6,277.3c0.3-1.1,0.3-3.2,0-4.4c-1.1,0.1-3.5-0.3-4.4,0.2
		c0.1,1.4-0.2,3.1,0.2,4.2C36.4,277.4,38.5,277.4,39.6,277.3z"/>
	<path class="st0" d="M54.5,276.3c0.9-0.2,1.5,1,0.9,1.9c-1.9,0.9-5.5-0.1-7.7,0.5c-2.1,2.2,0.7,4.8,2,6c-0.2,2.5-2.3,0.6-3-0.2
		c-0.4-0.5-1.4-1.7-1.5-2c-0.4-0.9-0.6-3.4,0.2-4.7C46.8,275.6,52.1,276.8,54.5,276.3z"/>
</g>
</svg>
